<?xml version="1.0" encoding="utf-8"?>
<!-- Generator: Adobe Illustrator 19.0.0, SVG Export Plug-In . SVG Version: 6.00 Build 0)  -->
<svg version="1.1" id="Layer_1" xmlns="http://www.w3.org/2000/svg" xmlns:xlink="http://www.w3.org/1999/xlink" x="0px" y="0px"
	 viewBox="0 0 280 100" style="enable-background:new 0 0 280 100;" xml:space="preserve">
<style type="text/css">
	.st0{fill:#231F20;}
	.st1{fill:#FFFFFF;}
</style>
<g id="XMLID_2_">
	<g id="XMLID_15_">
		<g id="XMLID_47_">
			<path id="XMLID_48_" class="st0" d="M143.9,6c-1.3-0.9-2.8-1.6-4.3-2.1c-1.6-0.5-3.2-0.8-4.7-0.8c-2.2,0-4.1,0.5-5.5,1.4
				c-1.4,1-2.1,2.5-2.1,4.6c0,1.1,0.2,2.1,0.7,2.8c0.5,0.8,1.1,1.5,2,2c0.8,0.6,1.8,1.1,2.8,1.5c1,0.4,2.1,0.8,3.3,1.2
				c1.3,0.4,2.6,0.9,3.8,1.4c1.3,0.5,2.5,1.2,3.5,2c1,0.8,1.9,1.8,2.5,3c0.7,1.2,1,2.6,1,4.3c0,1.8-0.3,3.3-1,4.6
				c-0.7,1.3-1.6,2.3-2.7,3.2c-1.1,0.8-2.4,1.4-3.9,1.8c-1.5,0.4-3,0.6-4.5,0.6c-2.3,0-4.5-0.4-6.7-1.2c-2.2-0.8-4.1-2-5.7-3.5
				l1.2-3c1.6,1.4,3.4,2.5,5.3,3.3c2,0.8,4,1.2,6,1.2c1.1,0,2.2-0.1,3.2-0.4c1-0.2,1.9-0.6,2.7-1.1c0.8-0.5,1.4-1.1,1.8-1.9
				c0.4-0.8,0.7-1.7,0.7-2.8c0-1.2-0.2-2.2-0.8-3.1c-0.6-0.9-1.3-1.6-2.3-2.2c-0.9-0.6-2-1.2-3.2-1.7c-1.2-0.5-2.3-0.9-3.5-1.3
				c-1.2-0.4-2.5-0.9-3.6-1.5c-1.2-0.6-2.2-1.3-3.2-2.2c-0.9-0.8-1.7-1.8-2.2-2.8c-0.6-1.1-0.9-2.3-0.9-3.6c0-1.7,0.3-3.1,1-4.4
				c0.7-1.2,1.5-2.2,2.6-3c1.1-0.8,2.3-1.3,3.7-1.7c1.4-0.4,2.8-0.5,4.3-0.5c1.8,0,3.6,0.2,5.3,0.7c1.7,0.5,3.3,1.2,4.6,2.1L143.9,6
				z"/>
		</g>
		<g id="XMLID_44_">
			<path id="XMLID_45_" class="st0" d="M162.6,0.7l13.3,31.6l12.9-31.6h5.5h-5.5h5.5v36.1h-3.5V4.3c-0.7,1.6-1.3,3.3-2.1,5.1
				c-0.6,1.6-1.3,3.3-2.1,5.2c-0.8,1.9-1.6,3.9-2.4,5.9l-6.6,16.2h-3L160.7,4.3v32.5h-3.6V0.7H162.6z"/>
		</g>
		<g id="XMLID_41_">
			<path id="XMLID_42_" class="st0" d="M205.9,0.7h3.6v36.1h-3.6V0.7z"/>
		</g>
		<g id="XMLID_38_">
			<path id="XMLID_39_" class="st0" d="M242.4,3.9h-10.9v33H228v-33h-10.9V0.7h25.3V3.9z"/>
		</g>
		<g id="XMLID_35_">
			<path id="XMLID_36_" class="st0" d="M278.1,0.7v36.1h-3.6V20.5h-20.3v16.4h-3.6V0.7h3.6v16.6h20.3V0.7H278.1z"/>
		</g>
		<g id="XMLID_32_">
			<path id="XMLID_33_" class="st0" d="M152.5,100h-8.1l-10.5-15.2h-3.6V100h-6.9V63.8h6.9V79h3.6l9.9-15.2h8.2L139.6,82L152.5,100z
				"/>
		</g>
		<g id="XMLID_29_">
			<path id="XMLID_30_" class="st0" d="M163.7,63.8V100h-7.2V63.8H163.7z"/>
		</g>
		<g id="XMLID_26_">
			<path id="XMLID_27_" class="st0" d="M193.2,100h-21.7V63.8h7.2v30.4h14.5V100z"/>
		</g>
		<g id="XMLID_23_">
			<path id="XMLID_24_" class="st0" d="M204.3,63.8V100h-7.2V63.8H204.3z"/>
		</g>
		<g id="XMLID_19_">
			<path id="XMLID_20_" class="st0" d="M233,91.5h-13.7l-3.1,8.5h-7.9l13.3-36.1h9.1L244,100h-7.9L233,91.5z M230.7,84.9
				c-0.6-1.7-1.2-3.2-1.6-4.5c-0.5-1.3-1-2.6-1.5-4c-0.5-1.4-1-2.6-1.3-3.7l-2.3,6.1c-0.3,0.8-0.6,1.5-0.8,2.3
				c-0.3,0.7-0.5,1.4-0.7,2c-0.2,0.6-0.4,1.2-0.7,1.9H230.7z"/>
		</g>
		<g id="XMLID_16_">
			<path id="XMLID_17_" class="st0" d="M278,100h-9.5l-13.3-27.1V100h-6.9V63.8h9.5l13.3,27.1V63.8h6.9V100z"/>
		</g>
	</g>
	<g id="XMLID_3_">
		<g id="XMLID_13_">
			<rect id="XMLID_14_" x="0" y="0" class="st0" width="100.1" height="100.1"/>
		</g>
		<g id="XMLID_6_">
			<g id="XMLID_10_">
				<path id="XMLID_11_" class="st1" d="M37.4,40.2c-1-0.7-2.1-1.2-3.4-1.6c-1.2-0.4-2.4-0.6-3.7-0.6c-1.7,0-3.2,0.4-4.3,1.1
					c-1.1,0.7-1.7,1.9-1.7,3.6c0,0.9,0.2,1.6,0.6,2.2c0.4,0.6,0.9,1.1,1.5,1.6c0.6,0.4,1.4,0.8,2.2,1.2c0.8,0.3,1.7,0.6,2.5,0.9
					c1,0.3,2,0.7,3,1.1c1,0.4,1.9,0.9,2.7,1.5c0.8,0.6,1.5,1.4,2,2.3c0.5,0.9,0.8,2,0.8,3.3c0,1.4-0.3,2.5-0.8,3.5
					c-0.5,1-1.2,1.8-2.1,2.4c-0.9,0.6-1.9,1.1-3,1.4c-1.1,0.3-2.3,0.5-3.5,0.5c-1.8,0-3.5-0.3-5.2-0.9c-1.7-0.6-3.2-1.5-4.4-2.7
					l0.9-2.3c1.2,1.1,2.6,2,4.2,2.6c1.5,0.6,3.1,0.9,4.7,0.9c0.9,0,1.7-0.1,2.5-0.3c0.8-0.2,1.5-0.5,2.1-0.9
					c0.6-0.4,1.1-0.9,1.4-1.5c0.3-0.6,0.5-1.3,0.5-2.2c0-0.9-0.2-1.7-0.6-2.4c-0.5-0.7-1-1.2-1.8-1.7c-0.7-0.5-1.5-0.9-2.4-1.3
					c-0.9-0.4-1.8-0.7-2.7-1c-1-0.3-1.9-0.7-2.8-1.2c-0.9-0.5-1.7-1-2.5-1.7c-0.7-0.6-1.3-1.4-1.7-2.2c-0.4-0.8-0.7-1.7-0.7-2.8
					c0-1.3,0.3-2.4,0.8-3.4c0.5-1,1.2-1.7,2-2.3c0.8-0.6,1.8-1,2.9-1.3c1.1-0.3,2.2-0.4,3.3-0.4c1.4,0,2.8,0.2,4.1,0.6
					c1.3,0.4,2.5,0.9,3.6,1.6L37.4,40.2z"/>
			</g>
			<g id="XMLID_7_">
				<path id="XMLID_8_" class="st1" d="M83.6,64.1h-6.3l-8.2-11.8h-2.8v11.8H61V36h5.3v11.8h2.8L76.9,36h6.3l-9.7,14.1L83.6,64.1z"
					/>
			</g>
		</g>
		<g id="XMLID_4_">
			<rect id="XMLID_5_" x="49.3" y="25.9" class="st1" width="1.5" height="48.3"/>
		</g>
	</g>
</g>
</svg>
