<?xml version="1.0" encoding="utf-8"?>
<!-- Generator: Adobe Illustrator 19.0.0, SVG Export Plug-In . SVG Version: 6.00 Build 0)  -->
<svg version="1.1" id="Layer_1" xmlns="http://www.w3.org/2000/svg" xmlns:xlink="http://www.w3.org/1999/xlink" x="0px" y="0px"
	 viewBox="0 0 280 100" style="enable-background:new 0 0 280 100;" xml:space="preserve">
<style type="text/css">
	.st0{fill:#231F20;}
</style>
<g id="XMLID_2_">
	<g id="XMLID_81_">
		<g id="XMLID_99_">
			<path id="XMLID_100_" class="st0" d="M116.8,50.5c-3.2,7.2-10.7,21.2-19.3,23.2c-2.7,0.7-2.2-3.2-2.2-3.2c6.2-19,6.7-20.8,6.7-21
				c-0.1-0.5-0.6-0.3-1.1,0.1c-4.8,3.3-11.3,16.1-11.3,16.1c-1.8,3.8-2.9,5.3-3.9,5.9c-1.7,1.1-3.3-0.2-3.3-2.7
				c0-6.2,1.2-13.8,3.5-21.4c-4.6,3.2-10.8,3.7-14.9-0.9c-6,1.2-11.9,1.5-18.1,2.7c-6.1,1.1-14.1,5.3-12.5,13.1
				c0.9,2.4,3.4,5.6,6.5,4.4c1.4-0.5,3-2.2,1.8-3.8c-0.5-0.6-1.2-1-2-0.7c-0.1,0.1-0.1,0.1-0.1,0.1c-0.8,0.5-1.9,0.6-2.5-0.2
				c-0.6-0.8-0.4-1.9,0.3-2.4c1.1-0.9,2.7-0.1,3.6,0.5c0.7,0.4,1.3,1,1.8,1.6c1.8,2.3,0.1,5-2.2,6.1c-3.6,2-7.5-1.7-8.5-5.2
				c-2.6-8.3,7-13.5,13.6-14.8c5.8-1.1,11.7-1.6,17.7-2.6c-0.8-1.6-0.5-4.3,1-5.5c0.7-0.5,1.6-0.9,2.5-0.8c1.1,0.1,1.9,0.9,2.2,1.9
				c0.4,2.6-1.5,4.3-3.7,5.2c4.3,4.1,10.4,2.5,14.4-1.4c3.2-10,7.7-19.7,13-26.2c2.2-2.7,7.3-8.5,11.5-6.9c1.1,0.7,1.7,1.6,1.9,2.5
				c1,3.9-5.4,13.5-20.1,31.9c-1.7,5.4-2.4,8-3.3,10.7c0,0-0.7,2.8,0.8,0.9c3-4.4,8.2-11.9,13.8-10.7c1.4,0.4,2.9,2.6,0.1,11.3
				c-3.5,10.7-3.6,11.4-2.9,11c1.4-0.9,2.6-2,3.9-3.1c5.9-6.1,9.8-15.8,9.8-15.8H116.8z M71.6,45.1c1.4-0.3,2.9-1.3,3.2-2.9
				c0.4-1.6-1.3-2.2-2.6-1.2C71,41.9,71,43.8,71.6,45.1z M94.7,40.9c5.5-7.1,11.3-14.3,15.2-22.8c2.7-6-2.5-4.9-5.3,0.5
				C101.4,23.9,98.9,29.7,94.7,40.9z"/>
		</g>
		<g id="XMLID_95_">
			<path id="XMLID_96_" class="st0" d="M146.4,50.5c0,0-5,12.2-11,16.2c-2.1,1.4-4.4,1.7-6.7,0.1c-3.5,4.9-7.8,7.2-11.5,7
				c-11.1-1-6.7-16.3-6.7-16.3c1.5-4.5,4.5-10.9,10.3-14.8c0.9-0.4,3.5-0.5,3.6,1c-0.4,1.1-15.2,18.4-6.8,26.6c0,0,3.2,2.4,9.5-5.1
				c-5.7-7.7-1.9-16.7-1.9-16.7c1.8-5.3,7.8-10.4,10.3-2c1,6.1-1.9,12.7-5.8,18.8c0.2,0.1,0.3,0.2,0.4,0.3c1.6,0.9,7.2,2.6,14.5-15
				H146.4z M132.6,52.6c0.5-3.2,1.6-7.8-1.8-8.3c-0.7,0.1-1.4,0.5-2.1,1.3c-6.4,9.5-0.5,17.7-0.5,17.7
				C130.1,61.2,131.7,55.4,132.6,52.6z"/>
		</g>
		<g id="XMLID_91_">
			<path id="XMLID_92_" class="st0" d="M159.5,50l1.3,0.9c-1.6,4.1-3.7,8.8-6,12.9c-0.9,1.5-5.3,8.6-10.2,7.5
				c-0.3-0.1-0.7-0.3-1-0.5c-1-0.8-2-2.4-2.4-5.3c-0.2-0.9-0.3-1.8-0.3-2.7c0-0.2,0-0.4,0-0.7c0-13.8,13-50.4,25.1-47
				c8.8,2.2-11.9,24.2-15.7,29.3c-1.7,6.6-4.2,12.1-5.1,19c0,0-0.1,0.3-0.1,0.7c0,0,0,0.4,0.1,1c0.1,1.1,0.3,2.8,1.3,3.4
				c2.2,0.8,5.1-3.2,6.6-5.7c0.3-0.7,0.7-1.3,1.1-2C156.6,56.8,158.6,52.5,159.5,50z M151.7,40.3c6.6-8.4,8.7-11.5,10.3-14
				c0.8-1.4,3.8-6.4,3.5-8.1c-1.3-2.4-4.5,0.4-10.8,14.1C153.1,35.8,151.9,39.5,151.7,40.3z"/>
		</g>
		<g id="XMLID_87_">
			<path id="XMLID_88_" class="st0" d="M175.8,50l1.3,0.9c-4.5,11.2-12.5,27.4-19.3,22.1c-1.8-1.3-2.3-4.5-2.2-7.5
				c0-16.2,15.2-59.1,29.4-55.1c10.3,2.6-13.9,28.3-18.3,34.3c-2.1,7.7-4.9,14.1-6,22.3c0,0-0.7,4.2,1.8,3.9
				C166.7,69.5,173.9,55.3,175.8,50z M171.8,30.6c-1.9,4.2-3.3,8.5-3.5,9.4c7.8-9.8,10.2-13.5,12-16.4c1-1.6,4.5-7.5,4.1-9.5
				C182.9,11.3,179.1,14.5,171.8,30.6z"/>
		</g>
		<g id="XMLID_82_">
			<path id="XMLID_83_" class="st0" d="M244.5,36.2c-1.8,6.2-8.3,8.9-14.4,9.6c-5.9,0.8-11.9,0.5-17.8,1.5c0.8,1.7,0.3,4.3-1.4,5.4
				c-0.7,0.5-1.7,0.8-2.6,0.7c-1-0.1-1.9-0.9-2-2c-0.2-1.4,0.4-2.7,1.4-3.6c0.7-0.7,1.6-1.1,2.6-1.4c-2.7-3-7-3.6-10.8-1.9
				c-3.4,1.5-4.8,3.5-6.2,6.3c-3.3,7.6-11.8,26.7-19.4,22.1c-1.4-1-2-3.2-2.1-5.5c-0.3-4.4,0.9-9.8,2-14.1c1.7-5.1,1.4-4.8,3.3-10.1
				c0.9-2.6,3.3-2.3,4.5-1.9c1.6,0.5,1.4,2.4,1.1,3.8c-2.8,10.1-4.2,11.7-5.8,22c0,0-0.7,4.2,1.8,3.9c4.7-1.5,10.7-15.5,13.6-21.3
				c3.2-6.2,12-10,18.1-5c0.5,0.4,1,1,1.5,1.6c5.9-1,12-0.9,18.2-1.6c5.3-0.7,11.5-2.9,13.2-8.8c0.9-3.2-1.7-9.7-6.1-8.2
				c-1.4,0.4-3.2,2.1-2,3.6c0.4,0.6,1.2,1.1,2,0.7h0.1c0.9-0.5,1.9-0.5,2.5,0.4c0.5,0.8,0.3,1.9-0.5,2.4c-1.1,0.8-2.6-0.2-3.6-0.8
				c-0.6-0.4-1.3-1.1-1.7-1.7c-1.7-2.4,0.2-5.1,2.6-6C241.6,24,246,31.2,244.5,36.2z M179,35.8c0.6-1.9,2.6-3.4,4.6-3.4
				c1.8,0,2.8,1.5,2.2,3.4c-0.6,1.9-2.6,3.4-4.5,3.4C179.4,39.3,178.3,37.7,179,35.8z M211,47.6C211,47.6,211,47.6,211,47.6
				c-1.4,0.3-4.9,2.7-3.1,4.2c0.5,0.5,1.7,0.3,2.2-0.2C211.4,50.8,211.4,49,211,47.6z"/>
		</g>
	</g>
	<g id="XMLID_79_">
		<path id="XMLID_80_" class="st0" d="M258.3,42.2c-3.8,0-3.9,5.9-0.1,5.9C262,48.1,262.1,42.2,258.3,42.2z"/>
	</g>
	<g id="XMLID_77_">
		<path id="XMLID_78_" class="st0" d="M230.4,60c-3.8,0-3.9,6-0.1,6C234.1,66,234.2,60,230.4,60z"/>
	</g>
	<g id="XMLID_75_">
		<path id="XMLID_76_" class="st0" d="M29.6,70.7c-3.8,0-3.9,5.9-0.1,5.9C33.4,76.6,33.4,70.7,29.6,70.7z"/>
	</g>
	<g id="XMLID_73_">
		<path id="XMLID_74_" class="st0" d="M53.4,73.4c-3.4,0-3.5,5.3-0.1,5.3C56.7,78.7,56.9,73.4,53.4,73.4z"/>
	</g>
	<g id="XMLID_71_">
		<path id="XMLID_72_" class="st0" d="M251.1,27.3c-1.6,0-1.7,2.5,0,2.5C252.7,29.8,252.7,27.3,251.1,27.3z"/>
	</g>
	<g id="XMLID_69_">
		<path id="XMLID_70_" class="st0" d="M242.2,49.1c-1.8,0-1.8,2.8,0,2.8C244,51.9,244,49.1,242.2,49.1z"/>
	</g>
	<g id="XMLID_67_">
		<path id="XMLID_68_" class="st0" d="M245.6,63.6c-0.2-1.3-2-1.4-2.1,0c0,0.2,0,0.4-0.1,0.6c-0.2,1.5,2.4,1.5,2.3,0
			C245.7,64,245.7,63.8,245.6,63.6z"/>
	</g>
	<g id="XMLID_65_">
		<path id="XMLID_66_" class="st0" d="M263.7,33.8c-1.5,0-1.6,2.4,0,2.4C265.2,36.2,265.2,33.8,263.7,33.8z"/>
	</g>
	<g id="XMLID_63_">
		<path id="XMLID_64_" class="st0" d="M276.1,28.2c-1.2,0-1.2,1.8,0,1.8C277.2,30.1,277.2,28.2,276.1,28.2z"/>
	</g>
	<g id="XMLID_61_">
		<path id="XMLID_62_" class="st0" d="M277.8,42.8c-1.6,0-1.6,2.4,0,2.4C279.4,45.2,279.4,42.8,277.8,42.8z"/>
	</g>
	<g id="XMLID_59_">
		<path id="XMLID_60_" class="st0" d="M260.6,59.3c-1.7,0-1.7,2.6,0,2.6C262.3,61.9,262.3,59.3,260.6,59.3z"/>
	</g>
	<g id="XMLID_57_">
		<path id="XMLID_58_" class="st0" d="M26.6,54c-1.7,0-1.7,2.6,0,2.6C28.3,56.6,28.3,54,26.6,54z"/>
	</g>
	<g id="XMLID_55_">
		<path id="XMLID_56_" class="st0" d="M54.6,54c-1.6,0-1.7,2.5,0,2.5C56.2,56.5,56.2,54,54.6,54z"/>
	</g>
	<g id="XMLID_53_">
		<path id="XMLID_54_" class="st0" d="M15.4,66.1c-1.4,0-1.4,2.1,0,2.1C16.7,68.2,16.8,66.1,15.4,66.1z"/>
	</g>
	<g id="XMLID_51_">
		<path id="XMLID_52_" class="st0" d="M62.5,63.8c-1.4,0-1.4,2.1,0,2.1C63.9,65.9,63.9,63.8,62.5,63.8z"/>
	</g>
	<g id="XMLID_49_">
		<path id="XMLID_50_" class="st0" d="M40.9,77.9c-1.5,0-1.5,2.3,0,2.3C42.4,80.2,42.4,77.9,40.9,77.9z"/>
	</g>
	<g id="XMLID_47_">
		<path id="XMLID_48_" class="st0" d="M18.3,81.9c-1.6,0-1.7,2.5,0,2.5C19.9,84.5,20,81.9,18.3,81.9z"/>
	</g>
	<g id="XMLID_45_">
		<path id="XMLID_46_" class="st0" d="M1.1,64.5c-1.8,0-1.9,2.9,0,2.9C2.9,67.4,3,64.5,1.1,64.5z"/>
	</g>
	<g id="XMLID_43_">
		<path id="XMLID_44_" class="st0" d="M61.7,83.3c-1.4,0-1.5,2.2,0,2.2C63.1,85.5,63.1,83.3,61.7,83.3z"/>
	</g>
	<g id="XMLID_41_">
		<path id="XMLID_42_" class="st0" d="M43.1,86.7c-1.6,0-1.6,2.5,0,2.5C44.7,89.3,44.7,86.7,43.1,86.7z"/>
	</g>
	<g id="XMLID_24_">
		<g id="XMLID_38_">
			<path id="XMLID_39_" class="st0" d="M41.7,24.6h-2.6c0-0.1,0-0.2,0-0.3c0-0.1,0-0.2,0-0.3c0-0.1,0-0.2,0-0.3c0-0.1,0-0.2,0-0.3
				h6.7c0,0.1,0,0.2,0,0.3c0,0.1,0,0.2,0,0.3c0,0.1,0,0.2,0,0.3c0,0.1,0,0.2,0,0.3h-2.6v8.8c-0.2,0-0.4,0-0.7,0c-0.3,0-0.5,0-0.7,0
				V24.6z"/>
		</g>
		<g id="XMLID_35_">
			<path id="XMLID_36_" class="st0" d="M47.7,23.3c0.2,0,0.4,0,0.6-0.1c0.2,0,0.3,0,0.5,0c0.2,0,0.3,0,0.5,0c0.2,0,0.4,0,0.6,0
				c0.5,0,0.9,0,1.4,0.1c0.5,0.1,0.9,0.3,1.2,0.5c0.4,0.2,0.7,0.5,0.9,0.9c0.2,0.4,0.3,0.9,0.3,1.5c0,0.4-0.1,0.7-0.2,1
				c-0.1,0.3-0.3,0.6-0.5,0.8c-0.2,0.2-0.4,0.4-0.6,0.6c-0.2,0.2-0.5,0.3-0.7,0.4l-0.2,0.1l2.9,4.2c-0.3,0-0.5,0-0.9,0
				c-0.3,0-0.5,0-0.8,0l-3.2-4.7v-0.1l0.1,0c0.3-0.1,0.5-0.2,0.8-0.3c0.3-0.1,0.5-0.3,0.8-0.4c0.2-0.2,0.4-0.4,0.6-0.7
				c0.2-0.3,0.2-0.6,0.2-0.9c0-0.7-0.2-1.2-0.6-1.5c-0.4-0.3-0.9-0.5-1.6-0.5c-0.2,0-0.3,0-0.4,0c-0.1,0-0.3,0-0.5,0v9
				c-0.1,0-0.2,0-0.3,0c-0.1,0-0.2,0-0.4,0c-0.1,0-0.2,0-0.4,0c-0.1,0-0.3,0-0.4,0V23.3z"/>
		</g>
		<g id="XMLID_32_">
			<path id="XMLID_33_" class="st0" d="M56.3,23.3h5.5c0,0.2,0,0.4,0,0.6c0,0.1,0,0.2,0,0.3c0,0.1,0,0.2,0,0.3h-4.1v2.9H61
				c0,0.1,0,0.2,0,0.3c0,0.1,0,0.2,0,0.3c0,0.1,0,0.2,0,0.3c0,0.1,0,0.2,0,0.3h-3.3v3.4H62c0,0.2,0,0.4,0,0.6c0,0.1,0,0.2,0,0.3
				c0,0.1,0,0.2,0,0.3h-5.6V23.3z"/>
		</g>
		<g id="XMLID_29_">
			<path id="XMLID_30_" class="st0" d="M64.2,23.3c0.1,0,0.2,0,0.3,0c0.1,0,0.2,0,0.3,0c0.1,0,0.2,0,0.3,0c0.1,0,0.2,0,0.3,0
				l4.4,7.6v-7.6c0.1,0,0.2,0,0.4,0c0.1,0,0.2,0,0.4,0c0.1,0,0.2,0,0.3,0c0.1,0,0.2,0,0.3,0v10.1c-0.1,0-0.2,0-0.3,0
				c-0.1,0-0.2,0-0.3,0c-0.1,0-0.2,0-0.3,0s-0.2,0-0.3,0l-4.4-7.5v7.5c-0.1,0-0.2,0-0.3,0c-0.1,0-0.2,0-0.3,0c-0.1,0-0.2,0-0.4,0
				c-0.1,0-0.2,0-0.3,0V23.3z"/>
		</g>
		<g id="XMLID_25_">
			<path id="XMLID_26_" class="st0" d="M74.1,23.3c0.3,0,0.7-0.1,1.1-0.1c0.4,0,0.9,0,1.3,0c1.8,0,3.1,0.4,4,1.3
				c0.9,0.9,1.3,2.2,1.3,3.9c0,1.8-0.4,3.1-1.3,3.9c-0.9,0.8-2.2,1.3-4,1.3c-0.4,0-0.9,0-1.3,0c-0.4,0-0.8-0.1-1.1-0.1V23.3z
				 M75.5,32.2c0.1,0,0.3,0,0.5,0c0.2,0,0.4,0,0.6,0c0.5,0,1.1-0.1,1.5-0.2c0.5-0.1,0.8-0.3,1.2-0.6c0.3-0.3,0.6-0.7,0.8-1.2
				c0.2-0.5,0.3-1.1,0.3-1.9c0-0.7-0.1-1.3-0.3-1.8c-0.2-0.5-0.4-0.9-0.7-1.2c-0.3-0.3-0.7-0.5-1.2-0.7c-0.4-0.1-0.9-0.2-1.5-0.2
				c-0.2,0-0.4,0-0.6,0c-0.2,0-0.4,0-0.6,0V32.2z"/>
		</g>
	</g>
	<g id="XMLID_8_">
		<g id="XMLID_21_">
			<path id="XMLID_22_" class="st0" d="M190.7,31.9c0.3,0.1,0.6,0.2,1,0.3c0.3,0.1,0.7,0.1,1.2,0.1c0.8,0,1.3-0.2,1.7-0.5
				c0.4-0.3,0.6-0.7,0.6-1.3c0-0.3,0-0.5-0.1-0.7c-0.1-0.2-0.2-0.3-0.4-0.5c-0.2-0.1-0.4-0.3-0.6-0.4c-0.2-0.1-0.5-0.2-0.8-0.4
				l-0.8-0.3c-0.3-0.1-0.5-0.2-0.7-0.4c-0.2-0.1-0.4-0.3-0.6-0.5c-0.2-0.2-0.3-0.4-0.4-0.7c-0.1-0.3-0.1-0.6-0.1-0.9
				c0-0.8,0.3-1.5,0.9-2c0.6-0.5,1.4-0.7,2.4-0.7c0.4,0,0.9,0,1.3,0.1c0.4,0.1,0.8,0.2,1.1,0.3c0,0.4-0.1,0.8-0.3,1.2
				c-0.3-0.1-0.5-0.2-0.9-0.3c-0.3-0.1-0.7-0.1-1.1-0.1c-0.6,0-1,0.1-1.4,0.4c-0.3,0.2-0.5,0.6-0.5,1.1c0,0.2,0,0.4,0.1,0.5
				c0.1,0.2,0.2,0.3,0.3,0.4c0.1,0.1,0.3,0.2,0.5,0.3c0.2,0.1,0.4,0.2,0.6,0.3l0.8,0.3c0.4,0.1,0.7,0.3,1,0.5
				c0.3,0.2,0.5,0.4,0.7,0.6c0.2,0.2,0.4,0.5,0.5,0.8c0.1,0.3,0.2,0.6,0.2,1c0,1-0.3,1.7-1,2.3c-0.7,0.6-1.6,0.8-2.8,0.8
				c-0.3,0-0.5,0-0.8,0c-0.2,0-0.4,0-0.7-0.1c-0.2,0-0.4-0.1-0.6-0.1c-0.2-0.1-0.4-0.1-0.6-0.2c0-0.2,0.1-0.4,0.1-0.6
				C190.5,32.3,190.6,32.1,190.7,31.9z"/>
		</g>
		<g id="XMLID_18_">
			<path id="XMLID_19_" class="st0" d="M200.6,24.6H198c0-0.1,0-0.2,0-0.3c0-0.1,0-0.2,0-0.3c0-0.1,0-0.2,0-0.3c0-0.1,0-0.2,0-0.3
				h6.7c0,0.1,0,0.2,0,0.3c0,0.1,0,0.2,0,0.3c0,0.1,0,0.2,0,0.3c0,0.1,0,0.2,0,0.3h-2.6v8.8c-0.2,0-0.4,0-0.7,0c-0.3,0-0.5,0-0.7,0
				V24.6z"/>
		</g>
		<g id="XMLID_15_">
			<path id="XMLID_16_" class="st0" d="M208.8,29.7l-3.2-6.4c0.1,0,0.3,0,0.4,0c0.1,0,0.3,0,0.4,0c0.1,0,0.3,0,0.4,0
				c0.1,0,0.3,0,0.4,0l2.3,5l2.3-5c0.1,0,0.2,0,0.4,0c0.1,0,0.2,0,0.4,0c0.1,0,0.3,0,0.4,0c0.1,0,0.3,0,0.4,0l-3.1,6.4v3.7
				c-0.1,0-0.2,0-0.4,0c-0.1,0-0.2,0-0.4,0c-0.1,0-0.2,0-0.4,0c-0.1,0-0.2,0-0.3,0V29.7z"/>
		</g>
		<g id="XMLID_12_">
			<path id="XMLID_13_" class="st0" d="M215.2,23.3c0.1,0,0.2,0,0.3,0c0.1,0,0.2,0,0.4,0c0.1,0,0.2,0,0.4,0c0.1,0,0.2,0,0.4,0v8.8
				h3.9c0,0.1,0,0.2,0,0.3c0,0.1,0,0.2,0,0.3c0,0.2,0,0.4,0,0.6h-5.4V23.3z"/>
		</g>
		<g id="XMLID_9_">
			<path id="XMLID_10_" class="st0" d="M222.5,23.3h5.5c0,0.2,0,0.4,0,0.6c0,0.1,0,0.2,0,0.3c0,0.1,0,0.2,0,0.3h-4.1v2.9h3.3
				c0,0.1,0,0.2,0,0.3c0,0.1,0,0.2,0,0.3c0,0.1,0,0.2,0,0.3c0,0.1,0,0.2,0,0.3h-3.3v3.4h4.2c0,0.2,0,0.4,0,0.6c0,0.1,0,0.2,0,0.3
				c0,0.1,0,0.2,0,0.3h-5.6V23.3z"/>
		</g>
	</g>
	<g id="XMLID_3_">
		<g id="XMLID_4_">
			<path id="XMLID_5_" class="st0" d="M125.3,25.6c0,0.4,0.1,0.7,0.4,1c0.3,0.2,0.7,0.4,1.3,0.4h3l1.3-1.8h0.1v1.8h1.8
				c0,0.2,0.1,0.3,0.1,0.5c0,0.1,0,0.2,0,0.3c0,0.1,0,0.2,0,0.3h-1.8v2.1c0,0.6-0.1,1.1-0.3,1.5c-0.2,0.4-0.5,0.8-0.8,1.1
				c-0.4,0.3-0.8,0.5-1.3,0.6c-0.5,0.1-1.1,0.2-1.7,0.2c-0.5,0-1-0.1-1.4-0.2c-0.5-0.1-0.9-0.3-1.2-0.5c-0.3-0.2-0.6-0.6-0.8-0.9
				c-0.2-0.4-0.3-0.8-0.3-1.4c0-0.3,0-0.6,0.1-0.9c0.1-0.3,0.2-0.6,0.4-0.8c0.2-0.3,0.4-0.5,0.6-0.7c0.2-0.2,0.5-0.3,0.7-0.4
				c-0.4-0.2-0.7-0.4-1-0.8c-0.3-0.3-0.4-0.8-0.4-1.3c0-0.4,0.1-0.8,0.2-1.1c0.2-0.3,0.4-0.6,0.6-0.8c0.3-0.2,0.6-0.4,1-0.4
				c0.4-0.1,0.8-0.1,1.2-0.1c0.2,0,0.5,0,0.8,0.1c0.3,0,0.6,0.1,0.9,0.2c0,0.2,0,0.4-0.1,0.6c0,0.2-0.1,0.3-0.2,0.5
				c-0.2-0.1-0.5-0.1-0.7-0.2c-0.2,0-0.4,0-0.7,0c-0.3,0-0.6,0-0.8,0.1c-0.2,0.1-0.4,0.2-0.5,0.3c-0.1,0.1-0.2,0.3-0.3,0.4
				C125.3,25.3,125.3,25.5,125.3,25.6z M127.4,32.3c0.5,0,1-0.1,1.3-0.2c0.3-0.1,0.6-0.3,0.8-0.6c0.2-0.2,0.3-0.5,0.4-0.8
				c0.1-0.3,0.1-0.6,0.1-1v-1.7h-2.8c-0.3,0-0.6,0.1-0.9,0.2c-0.3,0.1-0.5,0.3-0.7,0.5c-0.2,0.2-0.3,0.4-0.4,0.7
				c-0.1,0.3-0.2,0.5-0.2,0.8c0,0.6,0.2,1.1,0.6,1.5C126,32.1,126.6,32.3,127.4,32.3z"/>
		</g>
	</g>
</g>
</svg>
