<?xml version="1.0" encoding="utf-8"?>
<!-- Generator: Adobe Illustrator 19.0.0, SVG Export Plug-In . SVG Version: 6.00 Build 0)  -->
<svg version="1.1" id="Layer_1" xmlns="http://www.w3.org/2000/svg" xmlns:xlink="http://www.w3.org/1999/xlink" x="0px" y="0px"
	 viewBox="0 0 280 100" style="enable-background:new 0 0 280 100;" xml:space="preserve">
<style type="text/css">
	.st0{fill:#231F20;}
</style>
<g id="XMLID_2_">
	<g id="XMLID_95_">
		<path id="XMLID_96_" class="st0" d="M82.6,91.3H0V8.7h82.6V91.3z M2,89.4h78.7V10.7H2V89.4z"/>
	</g>
	<g id="XMLID_67_">
		<g id="XMLID_91_">
			<path id="XMLID_92_" class="st0" d="M123.8,47.3c0,0.3-0.2,0.5-0.4,0.5h-8.4c-0.2,0-0.4-0.2-0.4-0.5c0-0.2,0.2-0.5,0.4-0.5h1.8
				l-1.7-5.5h-9.4l-1.8,5.5h2.2c0.2,0,0.4,0.2,0.4,0.5c0,0.3-0.2,0.5-0.4,0.5h-5c-0.2,0-0.4-0.2-0.4-0.5c0-0.2,0.2-0.5,0.4-0.5h1.8
				l6.8-21h-1.9c-0.2,0-0.4-0.2-0.4-0.5c0-0.3,0.2-0.5,0.4-0.5h7.1c0.3,0,0.5,0.1,0.6,0.4l6.6,21.4h1.3
				C123.7,46.8,123.8,47.1,123.8,47.3z M114.9,40.4l-4.3-14l-4.6,14H114.9z"/>
		</g>
		<g id="XMLID_88_">
			<path id="XMLID_89_" class="st0" d="M154,47.3c0,0.3-0.2,0.5-0.5,0.5h-8.3c-0.3,0-0.5-0.2-0.5-0.5c0-0.2,0.2-0.5,0.5-0.5h1.4
				V27.5l0,0.2L139,47.9c-0.1,0.2-0.3,0.3-0.4,0.3c-0.2,0-0.3-0.1-0.4-0.3l-9.5-20.3v19.2h2.7c0.3,0,0.5,0.2,0.5,0.5
				c0,0.3-0.2,0.5-0.5,0.5h-6c-0.3,0-0.5-0.2-0.5-0.5c0-0.2,0.2-0.5,0.5-0.5h2.3v-21h-1.8c-0.3,0-0.5-0.2-0.5-0.5
				c0-0.3,0.2-0.5,0.5-0.5h6.7c0.3,0,0.5,0.1,0.6,0.4l7.4,15.8l6-15.7c0.1-0.3,0.3-0.4,0.6-0.4h6.2c0.3,0,0.5,0.2,0.5,0.5
				c0,0.3-0.2,0.5-0.5,0.5h-1.5v21h1.8C153.9,46.8,154,47.1,154,47.3z"/>
		</g>
		<g id="XMLID_85_">
			<path id="XMLID_86_" class="st0" d="M167.3,47.3c0,0.3-0.2,0.5-0.5,0.5h-8.8c-0.3,0-0.5-0.2-0.5-0.5c0-0.3,0.2-0.5,0.5-0.5h1.8
				v-21h-1.5c-0.3,0-0.5-0.2-0.5-0.5c0-0.3,0.2-0.5,0.5-0.5h8.2c0.3,0,0.5,0.2,0.5,0.5c0,0.3-0.2,0.5-0.5,0.5h-1.6v21h2
				C167.1,46.8,167.3,47,167.3,47.3z"/>
		</g>
		<g id="XMLID_82_">
			<path id="XMLID_83_" class="st0" d="M186.6,43.1v4.2c0,0.3-0.2,0.5-0.5,0.5h-14.7c-0.3,0-0.5-0.2-0.5-0.5c0-0.3,0.2-0.5,0.5-0.5
				h1.5v-21h-1.4c-0.3,0-0.5-0.2-0.5-0.5c0-0.2,0.2-0.5,0.5-0.5h14.3c0.3,0,0.5,0.2,0.5,0.5v3.7c0,0.3-0.3,0.5-0.5,0.5
				c-0.2,0-0.5-0.2-0.5-0.5v-3.3H178v9.6h6.5v-1.8c0-0.3,0.2-0.5,0.5-0.5c0.2,0,0.5,0.2,0.5,0.5V38c0,0.3-0.2,0.5-0.5,0.5
				c-0.3,0-0.5-0.2-0.5-0.5v-1.7H178v10.5h7.6v-3.7c0-0.3,0.3-0.5,0.5-0.5S186.6,42.8,186.6,43.1z"/>
		</g>
		<g id="XMLID_77_">
			<path id="XMLID_78_" class="st0" d="M213.3,47.7h-11.7c-0.3,0-0.5-0.2-0.5-0.5c0-0.2,0.2-0.5,0.5-0.5h1.8v-21h-1.5
				c-0.3,0-0.5-0.2-0.5-0.5c0-0.2,0.2-0.5,0.5-0.5h11.4c3,0,5.5,2.5,5.5,5.5c0,2.2-1.4,4.2-3.3,5c2.4,0.9,4,3.2,4,5.8
				C219.5,44.9,216.7,47.7,213.3,47.7z M213.2,25.9h-4.8v9.2h4.8c0.2,0,0.4,0,0.7,0v-9.1C213.6,25.9,213.4,25.9,213.2,25.9z
				 M213.2,46.8c0.2,0,0.4,0,0.7,0V36.1c-0.2,0-0.4,0-0.7,0h-4.8v10.8H213.2z"/>
		</g>
		<g id="XMLID_74_">
			<path id="XMLID_75_" class="st0" d="M238.4,43v4.3c0,0.3-0.2,0.5-0.5,0.5h-14.6c-0.3,0-0.5-0.2-0.5-0.5c0-0.2,0.2-0.5,0.5-0.5
				h1.4v-21h-1.2c-0.2,0-0.4-0.2-0.4-0.5c0-0.3,0.2-0.5,0.4-0.5h7.9c0.2,0,0.5,0.2,0.5,0.5c0,0.3-0.2,0.5-0.5,0.5h-1.6v21h7.6V43
				c0-0.2,0.2-0.4,0.5-0.4C238.2,42.6,238.4,42.8,238.4,43z"/>
		</g>
		<g id="XMLID_71_">
			<path id="XMLID_72_" class="st0" d="M261.6,25.4c0,0.3-0.2,0.5-0.5,0.5h-1v12.9c0,5.2-4.2,9.4-9.4,9.4c-5.2,0-9.4-4.2-9.4-9.4
				V25.9h-1.5c-0.3,0-0.5-0.2-0.5-0.5c0-0.3,0.2-0.5,0.5-0.5h8.4c0.3,0,0.5,0.2,0.5,0.5c0,0.3-0.2,0.5-0.5,0.5h-1.5v20.3
				c1.2,0.7,2.6,1,4.1,1c1.5,0,2.9-0.4,4.1-1V25.9h-1.9c-0.3,0-0.5-0.2-0.5-0.5c0-0.3,0.3-0.4,0.5-0.4h8.2
				C261.4,25,261.6,25.1,261.6,25.4z"/>
		</g>
		<g id="XMLID_68_">
			<path id="XMLID_69_" class="st0" d="M279.9,43.1v4.2c0,0.3-0.2,0.5-0.5,0.5h-14.7c-0.3,0-0.5-0.2-0.5-0.5c0-0.3,0.2-0.5,0.5-0.5
				h1.5v-21h-1.4c-0.3,0-0.5-0.2-0.5-0.5c0-0.2,0.2-0.5,0.5-0.5h14.3c0.3,0,0.5,0.2,0.5,0.5v3.7c0,0.3-0.3,0.5-0.5,0.5
				c-0.2,0-0.5-0.2-0.5-0.5v-3.3h-7.4v9.6h6.5v-1.8c0-0.3,0.2-0.5,0.5-0.5c0.2,0,0.5,0.2,0.5,0.5V38c0,0.3-0.2,0.5-0.5,0.5
				c-0.3,0-0.5-0.2-0.5-0.5v-1.7h-6.5v10.5h7.6v-3.7c0-0.3,0.3-0.5,0.5-0.5C279.7,42.6,279.9,42.8,279.9,43.1z"/>
		</g>
	</g>
	<g id="XMLID_9_">
		<g id="XMLID_64_">
			<path id="XMLID_65_" class="st0" d="M105.7,63.7c0.7,0,1.3,0.1,1.8,0.3c0.5,0.2,0.9,0.6,1.2,1c0.3,0.4,0.5,1,0.6,1.6
				c0.1,0.6,0.2,1.4,0.2,2.2v6.6h-1.4v-6.5c0-1.4-0.2-2.3-0.6-3c-0.4-0.6-1-1-2-1c-0.6,0-1.1,0.1-1.6,0.3c-0.5,0.2-0.9,0.5-1.2,0.9
				c-0.3,0.4-0.6,0.9-0.7,1.5c-0.2,0.6-0.2,1.2-0.2,1.9v5.8h-1.4V58.6h1.4v7.3c0.4-0.7,0.9-1.2,1.5-1.6
				C104,63.9,104.8,63.7,105.7,63.7z"/>
		</g>
		<g id="XMLID_60_">
			<path id="XMLID_61_" class="st0" d="M117.2,63.7c0.1,0,0.3,0,0.6,0c0.2,0,0.5,0.1,0.8,0.1c0.3,0.1,0.6,0.2,0.8,0.4
				c0.3,0.2,0.5,0.4,0.8,0.7c0.2,0.3,0.4,0.7,0.6,1.1c0.1,0.5,0.2,1,0.2,1.7v7.6h-1.2l-0.1-1.8c-0.3,0.4-0.5,0.8-0.8,1.1
				c-0.3,0.3-0.6,0.5-1.1,0.7c-0.4,0.2-1,0.3-1.6,0.3c-1.2,0-2.2-0.3-2.9-0.9c-0.7-0.6-1-1.5-1-2.6c0.1-1.3,0.7-2.3,1.9-2.9
				c1.2-0.6,3-0.9,5.4-0.8v-0.7c0-0.8-0.1-1.3-0.3-1.7c-0.2-0.4-0.5-0.7-0.8-0.8c-0.3-0.2-0.6-0.2-0.9-0.2c-0.3,0-0.5,0-0.6,0
				c-0.6,0-1,0.1-1.5,0.2c-0.4,0.1-0.8,0.2-1,0.3c-0.3,0.1-0.6,0.3-0.9,0.5v-1.4c0.4-0.1,0.7-0.3,1.1-0.4c0.3-0.1,0.7-0.2,1.2-0.3
				S116.7,63.7,117.2,63.7z M116,74.5c0.8,0,1.5-0.1,1.9-0.4c0.5-0.3,0.8-0.7,1.1-1.1c0.2-0.4,0.4-0.9,0.4-1.4
				c0.1-0.5,0.1-1,0.1-1.4v-0.5h-1.3c-0.3,0-0.7,0-1.2,0.1c-0.5,0.1-1,0.2-1.5,0.3c-0.5,0.2-0.9,0.4-1.3,0.7
				c-0.4,0.3-0.5,0.8-0.5,1.3c0,0.8,0.2,1.4,0.6,1.8C114.8,74.3,115.3,74.5,116,74.5z"/>
		</g>
		<g id="XMLID_57_">
			<path id="XMLID_58_" class="st0" d="M129.4,63.7c0.7,0,1.3,0.1,1.8,0.3c0.5,0.2,0.9,0.6,1.2,1c0.3,0.4,0.5,1,0.6,1.6
				c0.1,0.6,0.2,1.4,0.2,2.2v6.6h-1.4v-6.5c0-1.4-0.2-2.3-0.6-3c-0.4-0.6-1-1-2-1c-0.6,0-1.1,0.1-1.6,0.3c-0.5,0.2-0.9,0.5-1.2,0.9
				c-0.3,0.4-0.6,0.9-0.7,1.5c-0.2,0.6-0.2,1.2-0.2,1.9v5.8h-1.4V64h1.2l0.2,1.9c0.4-0.7,0.9-1.2,1.5-1.6
				C127.7,63.9,128.5,63.7,129.4,63.7z"/>
		</g>
		<g id="XMLID_53_">
			<path id="XMLID_54_" class="st0" d="M140.6,63.7c0.7,0,1.3,0.1,1.7,0.3c0.5,0.2,0.9,0.5,1.2,0.8c0.3,0.3,0.6,0.6,0.8,1.1v-7.3
				h1.4v16.8h-1.2l-0.2-1.8v0c-0.2,0.4-0.5,0.8-0.8,1.1c-0.3,0.3-0.7,0.5-1.1,0.7c-0.5,0.2-1.1,0.3-1.8,0.3c-0.8,0-1.4-0.2-2-0.5
				c-0.6-0.3-1.1-0.7-1.5-1.3c-0.4-0.5-0.7-1.2-0.9-1.9c-0.2-0.7-0.3-1.5-0.3-2.3s0.1-1.6,0.2-2.3c0.2-0.7,0.4-1.4,0.8-1.9
				c0.4-0.5,0.9-1,1.5-1.3C139,63.9,139.7,63.7,140.6,63.7z M140.7,74.5c0.5,0,1-0.1,1.5-0.3c0.4-0.2,0.8-0.5,1.1-0.8
				c0.3-0.4,0.6-0.9,0.7-1.5c0.2-0.6,0.3-1.3,0.3-2.1c0-0.9-0.1-1.7-0.3-2.3c-0.2-0.6-0.5-1.1-0.8-1.5c-0.3-0.4-0.7-0.6-1.2-0.8
				c-0.4-0.2-0.9-0.2-1.4-0.2c-0.4,0-0.9,0.1-1.3,0.3c-0.4,0.2-0.7,0.5-1,0.9c-0.3,0.4-0.5,0.9-0.7,1.5c-0.2,0.6-0.3,1.3-0.3,2.1
				c0,0.8,0.1,1.5,0.3,2.1c0.2,0.6,0.4,1.1,0.7,1.5c0.3,0.4,0.6,0.7,1,0.9C139.9,74.4,140.3,74.5,140.7,74.5z"/>
		</g>
		<g id="XMLID_50_">
			<path id="XMLID_51_" class="st0" d="M154,75.7c-0.9,0-1.8-0.2-2.5-0.5c-0.7-0.3-1.3-0.7-1.8-1.3c-0.5-0.5-0.8-1.2-1.1-1.9
				c-0.2-0.7-0.4-1.5-0.4-2.4c0-0.8,0.1-1.6,0.4-2.4c0.3-0.7,0.6-1.4,1.1-1.9c0.5-0.5,1.1-1,1.8-1.3c0.7-0.3,1.5-0.5,2.4-0.5
				c0.4,0,0.9,0,1.2,0.1c0.4,0.1,0.7,0.1,1,0.2c0.3,0.1,0.6,0.1,0.8,0.3l-0.5,1.1c-0.8-0.3-1.6-0.4-2.4-0.4c-0.8,0-1.5,0.2-2.2,0.6
				c-0.6,0.4-1.2,0.9-1.6,1.6c-0.4,0.7-0.6,1.6-0.6,2.6c0,1,0.2,1.9,0.6,2.5c0.4,0.7,0.9,1.2,1.6,1.6c0.6,0.4,1.4,0.5,2.2,0.6
				c0.8,0,1.6-0.1,2.3-0.4l0.5,1.1c0,0-0.1,0-0.2,0.1c-0.1,0.1-0.4,0.1-0.6,0.2c-0.3,0.1-0.6,0.1-1,0.2
				C154.8,75.6,154.4,75.7,154,75.7z"/>
		</g>
		<g id="XMLID_47_">
			<path id="XMLID_48_" class="st0" d="M164.7,65.3c-0.1,0-0.3,0-0.4-0.1c-0.1,0-0.2,0-0.3,0c-0.1,0-0.2,0-0.2,0
				c-0.6,0-1.1,0.1-1.4,0.4c-0.4,0.3-0.7,0.7-0.9,1.1c-0.2,0.5-0.4,0.9-0.4,1.5c-0.1,0.5-0.1,1-0.1,1.5v5.6h-1.4V64h1.1l0.2,2.2
				c0.2-0.4,0.3-0.7,0.5-1.1c0.2-0.4,0.4-0.7,0.7-0.9c0.3-0.2,0.7-0.4,1.1-0.5c0.4-0.1,0.9,0,1.6,0.1V65.3z"/>
		</g>
		<g id="XMLID_43_">
			<path id="XMLID_44_" class="st0" d="M171,63.7c0.1,0,0.3,0,0.6,0c0.2,0,0.5,0.1,0.8,0.1c0.3,0.1,0.6,0.2,0.8,0.4
				c0.3,0.2,0.5,0.4,0.8,0.7c0.2,0.3,0.4,0.7,0.6,1.1c0.1,0.5,0.2,1,0.2,1.7v7.6h-1.2l-0.1-1.8c-0.3,0.4-0.5,0.8-0.8,1.1
				c-0.3,0.3-0.6,0.5-1.1,0.7c-0.4,0.2-1,0.3-1.6,0.3c-1.2,0-2.2-0.3-2.9-0.9c-0.7-0.6-1-1.5-1-2.6c0.1-1.3,0.7-2.3,1.9-2.9
				c1.2-0.6,3-0.9,5.4-0.8v-0.7c0-0.8-0.1-1.3-0.3-1.7c-0.2-0.4-0.5-0.7-0.8-0.8c-0.3-0.2-0.6-0.2-0.9-0.2c-0.3,0-0.5,0-0.6,0
				c-0.6,0-1,0.1-1.5,0.2c-0.4,0.1-0.8,0.2-1,0.3c-0.3,0.1-0.6,0.3-0.9,0.5v-1.4c0.4-0.1,0.7-0.3,1.1-0.4c0.3-0.1,0.7-0.2,1.2-0.3
				S170.5,63.7,171,63.7z M169.8,74.5c0.8,0,1.5-0.1,1.9-0.4c0.5-0.3,0.8-0.7,1.1-1.1c0.2-0.4,0.4-0.9,0.4-1.4
				c0.1-0.5,0.1-1,0.1-1.4v-0.5H172c-0.3,0-0.7,0-1.2,0.1c-0.5,0.1-1,0.2-1.5,0.3c-0.5,0.2-0.9,0.4-1.3,0.7
				c-0.4,0.3-0.5,0.8-0.5,1.3c0,0.8,0.2,1.4,0.6,1.8C168.6,74.3,169.2,74.5,169.8,74.5z"/>
		</g>
		<g id="XMLID_40_">
			<path id="XMLID_41_" class="st0" d="M182.7,59.6c-0.2,0-0.4,0-0.6,0c-0.6,0-1,0.2-1.2,0.7c-0.2,0.4-0.3,1.1-0.3,2.1V64h3
				l-0.3,1.2h-2.7v10.2h-1.4V65.2h-2.5V64h2.5v-0.8c0-0.6,0-1.2,0-1.8c0-0.6,0.1-1.1,0.3-1.5c0.2-0.5,0.5-0.8,0.9-1.1
				c0.4-0.3,1-0.4,1.7-0.4c0.2,0,0.4,0,0.6,0c0.2,0,0.3,0,0.4,0.1c0.1,0,0.3,0.1,0.4,0.1l-0.1,1.3C183.1,59.7,182.9,59.7,182.7,59.6
				z"/>
		</g>
		<g id="XMLID_37_">
			<path id="XMLID_38_" class="st0" d="M190.4,75.5c-0.1,0-0.3,0.1-0.5,0.1c-0.2,0-0.4,0-0.7,0c-0.6,0-1-0.1-1.4-0.3
				c-0.3-0.2-0.6-0.4-0.8-0.7c-0.2-0.3-0.3-0.6-0.3-1c-0.1-0.4-0.1-0.7-0.1-1.1v-7.5H185V64h1.7v-2.7l1.4-0.5l0,3.2h2.6v1.2H188v7.5
				c0,0.1,0,0.3,0,0.5c0,0.2,0.1,0.4,0.2,0.6c0.1,0.2,0.3,0.4,0.4,0.5c0.2,0.1,0.5,0.2,0.8,0.2h0c0.3,0,0.6,0,0.8-0.1
				c0.2-0.1,0.3-0.1,0.3-0.1l0.1,1.2C190.7,75.4,190.5,75.5,190.4,75.5z"/>
		</g>
		<g id="XMLID_33_">
			<path id="XMLID_34_" class="st0" d="M193.9,70.1c0,0.8,0.1,1.5,0.4,2.2c0.1,0.3,0.2,0.5,0.4,0.8c0.2,0.3,0.4,0.5,0.7,0.7
				c0.3,0.2,0.6,0.4,1,0.5c0.4,0.1,0.8,0.2,1.3,0.2c0.4,0,0.8-0.1,1.2-0.2c0.4-0.1,0.7-0.2,1-0.4c0.4-0.2,0.7-0.4,1-0.6l0,1.4
				c-0.3,0.2-0.6,0.3-0.9,0.4c-0.3,0.1-0.6,0.2-1,0.3c-0.4,0.1-0.8,0.1-1.2,0.1c-1.2,0-2.2-0.2-2.9-0.6c-0.7-0.4-1.3-0.9-1.7-1.5
				c-0.4-0.6-0.7-1.3-0.8-2c-0.1-0.7-0.2-1.5-0.2-2.2c0-0.7,0.1-1.4,0.3-2.1c0.2-0.7,0.5-1.3,0.9-1.8c0.4-0.5,0.9-1,1.5-1.3
				c0.6-0.3,1.3-0.5,2.1-0.5c0.9,0,1.7,0.2,2.2,0.6c0.6,0.4,1,0.8,1.4,1.4c0.3,0.6,0.6,1.2,0.7,1.9c0.1,0.7,0.2,1.3,0.2,1.9v0.6
				H193.9z M200.2,68.9c0-0.5-0.1-1-0.2-1.5c-0.1-0.5-0.3-0.9-0.5-1.3c-0.2-0.4-0.5-0.7-0.9-0.9c-0.4-0.2-0.8-0.3-1.3-0.3
				c-0.5,0-1,0.1-1.4,0.4c-0.4,0.2-0.8,0.5-1,0.9c-0.3,0.4-0.5,0.8-0.7,1.3c-0.2,0.5-0.2,0.9-0.2,1.4H200.2z"/>
		</g>
		<g id="XMLID_29_">
			<path id="XMLID_30_" class="st0" d="M208.5,63.7c0.7,0,1.3,0.1,1.7,0.3c0.5,0.2,0.9,0.5,1.2,0.8c0.3,0.3,0.6,0.6,0.8,1.1v-7.3
				h1.4v16.8h-1.2l-0.2-1.8v0c-0.2,0.4-0.5,0.8-0.8,1.1c-0.3,0.3-0.7,0.5-1.1,0.7c-0.5,0.2-1.1,0.3-1.8,0.3c-0.8,0-1.4-0.2-2-0.5
				c-0.6-0.3-1.1-0.7-1.5-1.3c-0.4-0.5-0.7-1.2-0.9-1.9c-0.2-0.7-0.3-1.5-0.3-2.3s0.1-1.6,0.2-2.3c0.2-0.7,0.4-1.4,0.8-1.9
				c0.4-0.5,0.9-1,1.5-1.3C206.9,63.9,207.6,63.7,208.5,63.7z M208.6,74.5c0.5,0,1-0.1,1.5-0.3c0.4-0.2,0.8-0.5,1.1-0.8
				c0.3-0.4,0.6-0.9,0.7-1.5c0.2-0.6,0.3-1.3,0.3-2.1c0-0.9-0.1-1.7-0.3-2.3c-0.2-0.6-0.5-1.1-0.8-1.5c-0.3-0.4-0.7-0.6-1.2-0.8
				c-0.4-0.2-0.9-0.2-1.4-0.2c-0.4,0-0.9,0.1-1.3,0.3c-0.4,0.2-0.7,0.5-1,0.9c-0.3,0.4-0.5,0.9-0.7,1.5c-0.2,0.6-0.3,1.3-0.3,2.1
				c0,0.8,0.1,1.5,0.3,2.1c0.2,0.6,0.4,1.1,0.7,1.5c0.3,0.4,0.6,0.7,1,0.9C207.7,74.4,208.1,74.5,208.6,74.5z"/>
		</g>
		<g id="XMLID_25_">
			<path id="XMLID_26_" class="st0" d="M232.4,64v10.7c0,0.8-0.1,1.5-0.3,2.2c-0.2,0.7-0.5,1.3-1,1.8c-0.4,0.5-1,0.9-1.7,1.2
				c-0.7,0.3-1.5,0.4-2.5,0.4c-0.5,0-1,0-1.4-0.1c-0.5-0.1-0.9-0.2-1.3-0.3c-0.5-0.1-0.9-0.3-1.3-0.4l0.3-1.3
				c0.4,0.2,0.8,0.3,1.2,0.5c0.3,0.1,0.7,0.2,1.2,0.3c0.4,0.1,0.9,0.2,1.4,0.2c0.7,0,1.2-0.1,1.7-0.3c0.5-0.2,0.8-0.4,1.1-0.7
				c0.3-0.3,0.5-0.6,0.7-0.9c0.2-0.3,0.3-0.7,0.3-1c0.1-0.3,0.1-0.7,0.1-1c0-0.3,0-0.5,0-0.7v-1.3c-0.2,0.4-0.4,0.8-0.7,1.1
				c-0.3,0.3-0.7,0.5-1.1,0.8c-0.5,0.2-1.1,0.3-1.8,0.3c-0.7,0-1.3-0.1-1.8-0.4c-0.6-0.2-1.1-0.6-1.5-1.1c-0.4-0.5-0.8-1.1-1-1.8
				c-0.3-0.7-0.4-1.6-0.4-2.5c0-1.9,0.4-3.3,1.2-4.3c0.8-1,2-1.5,3.5-1.6c0.6,0,1.2,0,1.7,0.2c0.5,0.2,0.8,0.3,1.1,0.5
				c0.3,0.2,0.6,0.5,0.8,0.8l0.3-1.3H232.4z M227.6,74.2c0.6,0,1-0.1,1.5-0.4c0.4-0.2,0.8-0.6,1.1-1c0.3-0.4,0.5-0.9,0.7-1.5
				c0.1-0.6,0.2-1.2,0.2-1.8c0-0.6-0.1-1.2-0.2-1.8c-0.1-0.6-0.3-1-0.6-1.5c-0.3-0.4-0.6-0.7-1.1-1c-0.4-0.2-1-0.4-1.7-0.4
				c-0.6,0-1.2,0.1-1.6,0.4c-0.4,0.3-0.8,0.6-1.1,1.1c-0.3,0.4-0.5,0.9-0.6,1.5c-0.1,0.6-0.2,1.1-0.2,1.7c0,0.6,0.1,1.1,0.2,1.7
				c0.1,0.6,0.3,1,0.6,1.5c0.3,0.4,0.6,0.8,1.1,1C226.4,74.1,227,74.2,227.6,74.2z"/>
		</g>
		<g id="XMLID_21_">
			<path id="XMLID_22_" class="st0" d="M240.3,63.7c0.5,0,1.1,0.1,1.7,0.3c0.6,0.2,1.2,0.5,1.7,0.9c0.5,0.5,1,1.1,1.3,1.8
				c0.4,0.8,0.5,1.8,0.5,3s-0.2,2.2-0.5,3c-0.4,0.8-0.8,1.4-1.3,1.8c-0.5,0.4-1.1,0.7-1.7,0.9c-0.6,0.2-1.2,0.3-1.7,0.3
				c-0.5,0-1.1-0.1-1.7-0.3c-0.6-0.2-1.2-0.5-1.7-0.9c-0.5-0.4-1-1-1.3-1.8c-0.4-0.8-0.5-1.8-0.5-3s0.2-2.2,0.5-3
				c0.4-0.8,0.8-1.4,1.3-1.8c0.5-0.5,1.1-0.8,1.7-0.9C239.2,63.8,239.7,63.7,240.3,63.7z M240.3,74.5c1.3,0,2.2-0.4,2.8-1.3
				c0.6-0.9,0.9-2,0.9-3.4c0-0.7-0.1-1.4-0.2-2c-0.2-0.6-0.4-1.1-0.7-1.5c-0.3-0.4-0.7-0.8-1.2-1c-0.5-0.2-1-0.3-1.6-0.3
				c-0.6,0-1.2,0.1-1.6,0.3c-0.5,0.2-0.9,0.6-1.2,1c-0.3,0.4-0.5,0.9-0.7,1.5c-0.2,0.6-0.2,1.2-0.2,2s0.1,1.4,0.2,2
				c0.2,0.6,0.4,1.1,0.7,1.5c0.3,0.4,0.7,0.7,1.2,1C239.1,74.4,239.6,74.5,240.3,74.5z"/>
		</g>
		<g id="XMLID_17_">
			<path id="XMLID_18_" class="st0" d="M252.7,63.7c0.5,0,1.1,0.1,1.7,0.3c0.6,0.2,1.2,0.5,1.7,0.9c0.5,0.5,1,1.1,1.3,1.8
				c0.4,0.8,0.5,1.8,0.5,3s-0.2,2.2-0.5,3c-0.4,0.8-0.8,1.4-1.3,1.8c-0.5,0.4-1.1,0.7-1.7,0.9c-0.6,0.2-1.2,0.3-1.7,0.3
				c-0.5,0-1.1-0.1-1.7-0.3c-0.6-0.2-1.2-0.5-1.7-0.9c-0.5-0.4-1-1-1.3-1.8c-0.4-0.8-0.5-1.8-0.5-3s0.2-2.2,0.5-3
				c0.4-0.8,0.8-1.4,1.3-1.8c0.5-0.5,1.1-0.8,1.7-0.9C251.6,63.8,252.2,63.7,252.7,63.7z M252.7,74.5c1.3,0,2.2-0.4,2.8-1.3
				c0.6-0.9,0.9-2,0.9-3.4c0-0.7-0.1-1.4-0.2-2c-0.2-0.6-0.4-1.1-0.7-1.5c-0.3-0.4-0.7-0.8-1.2-1c-0.5-0.2-1-0.3-1.6-0.3
				c-0.6,0-1.2,0.1-1.6,0.3c-0.5,0.2-0.9,0.6-1.2,1c-0.3,0.4-0.5,0.9-0.7,1.5c-0.2,0.6-0.2,1.2-0.2,2s0.1,1.4,0.2,2
				c0.2,0.6,0.4,1.1,0.7,1.5c0.3,0.4,0.7,0.7,1.2,1C251.5,74.4,252.1,74.5,252.7,74.5z"/>
		</g>
		<g id="XMLID_13_">
			<path id="XMLID_14_" class="st0" d="M264.7,63.7c0.7,0,1.3,0.1,1.7,0.3c0.5,0.2,0.9,0.5,1.2,0.8c0.3,0.3,0.6,0.6,0.8,1.1v-7.3
				h1.4v16.8h-1.2l-0.2-1.8v0c-0.2,0.4-0.5,0.8-0.8,1.1c-0.3,0.3-0.7,0.5-1.1,0.7c-0.5,0.2-1.1,0.3-1.8,0.3c-0.8,0-1.4-0.2-2-0.5
				c-0.6-0.3-1.1-0.7-1.5-1.3c-0.4-0.5-0.7-1.2-0.9-1.9c-0.2-0.7-0.3-1.5-0.3-2.3s0.1-1.6,0.2-2.3c0.2-0.7,0.4-1.4,0.8-1.9
				c0.4-0.5,0.9-1,1.5-1.3C263.1,63.9,263.9,63.7,264.7,63.7z M264.8,74.5c0.5,0,1-0.1,1.5-0.3c0.4-0.2,0.8-0.5,1.1-0.8
				c0.3-0.4,0.6-0.9,0.7-1.5c0.2-0.6,0.3-1.3,0.3-2.1c0-0.9-0.1-1.7-0.3-2.3c-0.2-0.6-0.5-1.1-0.8-1.5c-0.3-0.4-0.7-0.6-1.2-0.8
				c-0.4-0.2-0.9-0.2-1.4-0.2c-0.4,0-0.9,0.1-1.3,0.3c-0.4,0.2-0.7,0.5-1,0.9c-0.3,0.4-0.5,0.9-0.7,1.5c-0.2,0.6-0.3,1.3-0.3,2.1
				c0,0.8,0.1,1.5,0.3,2.1c0.2,0.6,0.4,1.1,0.7,1.5c0.3,0.4,0.6,0.7,1,0.9C264,74.4,264.4,74.5,264.8,74.5z"/>
		</g>
		<g id="XMLID_10_">
			<path id="XMLID_11_" class="st0" d="M279,65.9c-0.4-0.3-0.9-0.5-1.4-0.7c-0.5-0.2-1-0.2-1.4-0.2c-0.6,0-1.1,0.1-1.5,0.4
				c-0.3,0.3-0.5,0.8-0.5,1.4c0,0.3,0.1,0.6,0.2,0.8c0.1,0.2,0.3,0.4,0.5,0.6c0.2,0.2,0.5,0.3,0.8,0.4c0.3,0.1,0.6,0.2,0.9,0.3
				c0.4,0.1,0.8,0.3,1.2,0.4c0.4,0.2,0.8,0.4,1.1,0.6c0.3,0.3,0.6,0.6,0.8,1c0.2,0.4,0.3,0.9,0.3,1.5c0,0.6-0.1,1.1-0.3,1.5
				c-0.2,0.4-0.5,0.8-0.8,1c-0.4,0.3-0.8,0.5-1.2,0.6c-0.5,0.1-0.9,0.2-1.4,0.2c-0.7,0-1.4-0.1-2.1-0.4c-0.7-0.2-1.3-0.6-1.8-1.1
				l0.5-1.2c0.5,0.5,1.1,0.8,1.7,1.1c0.6,0.3,1.2,0.4,1.8,0.4c0.7,0,1.2-0.2,1.6-0.5c0.4-0.3,0.6-0.8,0.6-1.4c0-0.3-0.1-0.6-0.2-0.9
				c-0.1-0.2-0.3-0.4-0.5-0.6c-0.2-0.2-0.5-0.3-0.8-0.5c-0.3-0.1-0.6-0.3-1-0.4c-0.4-0.1-0.8-0.3-1.2-0.4c-0.4-0.2-0.7-0.4-1-0.6
				c-0.3-0.3-0.6-0.6-0.7-0.9c-0.2-0.4-0.3-0.8-0.3-1.4c0-0.6,0.1-1,0.3-1.4c0.2-0.4,0.5-0.7,0.8-1c0.3-0.2,0.7-0.4,1.2-0.5
				c0.4-0.1,0.9-0.2,1.4-0.2c0.6,0,1.1,0.1,1.7,0.3c0.6,0.2,1.1,0.4,1.5,0.7L279,65.9z"/>
		</g>
	</g>
	<g id="XMLID_3_">
		<g id="XMLID_4_">
			<path id="XMLID_5_" class="st0" d="M67.9,74.4c0,0.6-0.4,1-0.9,1H48.4c-0.5,0-0.9-0.4-0.9-1c0-0.5,0.4-1,0.9-1h4l-3.8-12.3H27.7
				l-4,12.3h4.8c0.5,0,0.9,0.5,0.9,1c0,0.6-0.4,1-0.9,1H17.5c-0.5,0-0.9-0.4-0.9-1c0-0.5,0.4-1,0.9-1h4l15-46.5h-4.2
				c-0.5,0-0.9-0.4-0.9-1c0-0.6,0.4-1,0.9-1h15.8c0.6,0,1,0.3,1.2,0.9L64,73.4h3C67.5,73.4,67.9,73.9,67.9,74.4z M48.1,59.1L38.5,28
				L28.4,59.1H48.1z M54.7,73.4h7.1L47.5,26.9h-7.1L54.7,73.4z"/>
		</g>
	</g>
</g>
</svg>
