<?xml version="1.0" encoding="utf-8"?>
<!-- Generator: Adobe Illustrator 19.0.0, SVG Export Plug-In . SVG Version: 6.00 Build 0)  -->
<svg version="1.1" id="Layer_1" xmlns="http://www.w3.org/2000/svg" xmlns:xlink="http://www.w3.org/1999/xlink" x="0px" y="0px"
	 viewBox="0 0 280 100" style="enable-background:new 0 0 280 100;" xml:space="preserve">
<style type="text/css">
	.st0{fill:#231F20;}
</style>
<g id="XMLID_2_">
	<g id="XMLID_32_">
		<g id="XMLID_75_">
			<g id="XMLID_80_">
				<path id="XMLID_81_" class="st0" d="M126.9,60c0.6-1.5,0.8-3.1,1.2-4.6c0.4-1.5,1-3,1.5-4.5c0-0.1,0-0.2,0-0.3
					c7.9-6.3,14.8-13.9,21.7-21.2c5.7-6.1,11.8-12.3,16.7-19.1c-1.8,4.3-3,9.4-2.9,13.8c0,0.9,1.3,1.2,1.6,0.3c1-2.7,1.4-5.6,2-8.5
					c0.5-2.6,1-5.2,1.4-7.8c0.1-0.5-0.1-0.8-0.1-0.8c-0.1-0.2-0.8-0.1-1.1,0c-2.9,0.6-5.7,2.1-8.4,3.2c-3.1,1.3-6.3,2.5-9.4,4
					c-0.9,0.5-0.5,2,0.6,1.8c4.7-1.1,10.3-3.1,14.7-5.9c-6.4,5.9-12.2,12.7-18.3,19c-6.6,6.8-13.6,13.3-19.7,20.5v0
					c-1.8-0.1-3.6,0.5-5.3,1c-1.9,0.5-4,0.8-5.7,1.8c-0.7,0.4-0.6,1.5,0.3,1.6c2.1,0.1,4.2-0.7,6.2-1.3c1.2-0.4,2.5-0.7,3.6-1.3
					c-1.6,2.4-2.7,5.8-2.3,8.5C125.3,60.8,126.6,60.8,126.9,60z"/>
			</g>
			<g id="XMLID_78_">
				<path id="XMLID_79_" class="st0" d="M121.4,64.7c0.7-1.3,0.7-2.7,0.9-4.1c0.2-1.5,0.6-3,0.7-4.5c0-0.1,0-1.3-0.5-1.2
					c-1.6,0.4-3.1,0.9-4.6,1.5c-1.5,0.6-3.2,1.1-4.3,2.2c-0.4,0.4-0.2,1.2,0.4,1.2c1.5,0,2.8-0.8,4.2-1.4c1.1-0.5,2.2-1.1,3.2-1.7
					c-1.4,2.2-2.3,5.6-1.4,7.9C120.2,65.1,121.1,65.2,121.4,64.7z"/>
			</g>
			<g id="XMLID_76_">
				<path id="XMLID_77_" class="st0" d="M115.8,69c0.6-2,0.8-4.1,1.3-6.1c0.1-0.3,0.1-0.7,0-0.9c-0.2-0.1-0.5-0.2-0.8-0.1
					c-1,0.3-1.8,0.8-2.7,1.3c-0.9,0.5-1.9,0.8-2.6,1.6c-0.4,0.4-0.1,1,0.5,1c1.1-0.1,2-0.8,2.9-1.4c0.6-0.4,1.1-0.8,1.6-1.3
					c-1,1.8-1.7,3.8-1.5,5.8C114.6,69.6,115.7,69.6,115.8,69z"/>
			</g>
		</g>
		<g id="XMLID_68_">
			<g id="XMLID_73_">
				<path id="XMLID_74_" class="st0" d="M162.2,51.8c-1.5-0.6-3.1-0.8-4.6-1.2c-1.5-0.4-3-1-4.5-1.5c-0.1,0-0.2,0-0.3,0
					c-6.3-7.9-13.9-14.8-21.2-21.7c-6.1-5.7-12.3-11.8-19.1-16.7c4.3,1.8,9.4,3,13.8,2.9c0.9,0,1.2-1.3,0.3-1.6
					c-2.7-1-5.6-1.4-8.5-2c-2.6-0.5-5.2-1-7.8-1.4c-0.5-0.1-0.8,0.1-0.8,0.1c-0.2,0.1-0.1,0.8,0,1.1c0.6,2.9,2.1,5.7,3.2,8.4
					c1.3,3.1,2.5,6.3,4,9.4c0.5,0.9,2,0.5,1.8-0.6c-1.1-4.7-3.1-10.3-5.9-14.7c5.9,6.4,12.7,12.2,19,18.3
					c6.8,6.6,13.3,13.6,20.5,19.7h0c-0.1,1.8,0.5,3.6,1,5.3c0.5,1.9,0.8,4,1.8,5.7c0.4,0.7,1.5,0.6,1.6-0.3c0.1-2.1-0.7-4.2-1.3-6.2
					c-0.4-1.2-0.7-2.5-1.3-3.6c2.4,1.6,5.8,2.7,8.5,2.3C163.1,53.4,163,52.1,162.2,51.8z"/>
			</g>
			<g id="XMLID_71_">
				<path id="XMLID_72_" class="st0" d="M166.9,57.3c-1.3-0.7-2.7-0.7-4.1-0.9c-1.5-0.2-3-0.6-4.5-0.7c-0.1,0-1.3,0-1.2,0.5
					c0.4,1.6,0.9,3.1,1.5,4.6c0.6,1.5,1.1,3.2,2.2,4.3c0.4,0.4,1.2,0.2,1.2-0.4c0-1.5-0.8-2.8-1.4-4.2c-0.5-1.1-1.1-2.2-1.7-3.2
					c2.2,1.4,5.6,2.3,7.9,1.4C167.3,58.5,167.4,57.6,166.9,57.3z"/>
			</g>
			<g id="XMLID_69_">
				<path id="XMLID_70_" class="st0" d="M171.2,62.8c-2-0.6-4.1-0.8-6.1-1.3c-0.3-0.1-0.7-0.1-0.9,0c-0.1,0.2-0.2,0.5-0.1,0.8
					c0.3,1,0.8,1.8,1.3,2.7c0.5,0.9,0.8,1.9,1.6,2.6c0.4,0.4,1,0.1,1-0.5c-0.1-1.1-0.8-2-1.4-2.9c-0.4-0.6-0.8-1.1-1.3-1.6
					c1.8,1,3.8,1.7,5.8,1.5C171.8,64,171.8,63,171.2,62.8z"/>
			</g>
		</g>
		<g id="XMLID_52_">
			<g id="XMLID_64_">
				<path id="XMLID_65_" class="st0" d="M13.8,40.3c2.3,0.9,4.3,0.7,6.4,0.2c3.7-1,7.2-2.6,10.5-4.6c0.7-0.4,1.4-0.9,2.2-1.3
					c0.3-0.2,0.5-0.2,1.2-0.4c-0.2,0.5-0.3,0.9-0.5,1c-0.7,0.6-1.4,1.2-2.1,1.7c-2.9,1.9-5.9,3.5-9.2,4.8c-1.7,0.6-3.5,1-5.4,1.5
					c0,0.5,0.1,1.1,0.2,1.7c0.3,2,0,4-0.6,6c-1,3-2.5,5.8-4.5,8.4c-2,2.6-4.5,4-7.9,3.6c-2.9-0.3-4.3-2.1-3.8-5
					c0.5-3.1,1.7-5.9,3.3-8.5c1.9-3,3.9-5.8,6-8.6c2.8-3.6,5.8-7.1,8.7-10.5c1-1.2,2.2-2.2,3.4-3.2c0.7-0.6,1.5-1,2.6-0.3
					c-1,1.7-2.4,3-3.5,4.4c-1.1,1.5-2.3,2.9-3.3,4.3C16.1,37,15.1,38.5,13.8,40.3z M12.9,42c-0.4,0.4-0.7,0.7-1,1.1
					c-0.8,1.2-1.6,2.3-2.4,3.5c-1.5,2.3-2.9,4.6-3.8,7.2c-0.5,1.4-0.9,2.8-1.2,4.3c-0.2,0.9-0.2,1.8,0.9,2.5c0.9-0.7,1.8-1.2,2.5-2
					c2.5-2.6,4.4-5.6,5.5-9.1c0.4-1.4,0.7-2.9,0.6-4.4C14,44,13.7,42.9,12.9,42z"/>
			</g>
			<g id="XMLID_60_">
				<path id="XMLID_61_" class="st0" d="M38.4,40.5c0.8-0.4,1.1-1,1.4-1.5c0.7-1,1.4-2.1,2.2-3c0.9-1.1,2.1-1.1,3.3,0
					c-0.3,0.6-0.6,1.3-0.9,1.9c-1.3,2.4-2.5,4.8-3.2,7.4c-0.3,0.8-0.5,1.6-0.3,2.7c0.4-0.2,0.7-0.2,0.9-0.4c0.3-0.2,0.6-0.4,0.8-0.6
					c4.8-4,8.8-7.2,13.6-11.3c0.5-0.3,0.9-0.7,1.6-1.3c-0.1,0.6-0.1,0.9-0.2,1c-0.4,0.5-0.9,1-1.4,1.5c-1.4,1.4-2,1.7-3.4,3.1
					c-1.5,1.5-2.9,3-4.3,4.5c-1.4,1.5-3,3-4.7,4.2c-1.2,0.8-2.4,1.2-3.8,1.1c-1.9-0.1-3-1.1-3.1-3c0-0.3,0-0.5,0-1.1
					c-0.5,0.5-0.8,0.9-1.1,1.2c-1.1,1-2.2,2-3.3,2.9c-1.8,1.3-3.9,1.8-6.1,1.3c-2-0.4-2.8-1.4-2.6-3.4c0-0.7,0.2-1.5,0.5-2.1
					c1.4-3.4,3.4-6.4,6-8.9c1.5-1.4,3.2-2.4,5.2-2.8c0.7-0.1,1.5-0.1,2.2,0c1.3,0.2,1.9,1,1.9,2.3c0,0.8-0.3,1.7-0.5,2.5
					C39,39.3,38.7,39.8,38.4,40.5z M28.4,49.1c0.4-0.2,0.7-0.3,1.1-0.5c4.1-2.3,6.7-5.9,8-10.5c0.1-0.6,0.2-1.2,0.1-1.8
					c0-0.5-0.3-1-0.9-1.2c-1,0.3-2,0.8-2.7,1.5c-2.9,3-5,6.4-5.9,10.4C28,47.7,27.9,48.3,28.4,49.1z"/>
			</g>
			<g id="XMLID_57_">
				<path id="XMLID_58_" class="st0" d="M93.7,35.1c-0.4,0.5-0.8,0.9-1.2,1.3l-9.2,6.4c-1.2,0.5-2.5,0.7-3.8,0.4
					c-1.4-0.4-2-1.1-2.1-2.5c0-0.8,0-1.5,0-2.5c-0.5,0.3-1,0.4-1.3,0.6c-1.5,1-3,2.1-4.5,3.1c-0.8,0.5-1.5,1-2.3,1.5
					c-0.5,0.2-1.2,0.4-1.9,0.5c-1.8,0-2.5-0.8-2-2.6c0.2-1,0.6-1.9,0.8-2.8c0.1-0.5,0.2-1,0.3-1.8c-1.7,0.8-2.8,1.7-3.9,2.7
					c-1.9,2-3.8,3.9-5.7,5.8c-0.7,0.7-1.4,1.4-2.2,2c-1,0.7-2.1,1-3.3,0.6c-1-0.3-1.3-0.9-1.2-1.9c0-0.3,0.1-0.6,0.2-0.9
					c1.1-3.6,2.8-6.9,4.9-9.9c0.4-0.6,0.8-1.3,1.6-1.3c0.4,0,1,0,1.3,0.3c0.2,0.2,0.2,0.7,0.1,1.1c-0.4,1-0.9,2-1.3,3
					c-0.6,1.5-1.3,3-1.9,4.5c-0.2,0.3-0.2,0.7-0.5,1.5c0.7-0.5,1-0.8,1.3-1c1.6-1.5,3.2-3,4.9-4.4c1.4-1.1,3-2.1,4.5-3
					c0.6-0.4,1.5-0.5,2.3-0.5c1.2,0,1.8,0.7,1.8,1.9c0,0.7-0.1,1.5-0.2,2.3l-0.2,1.1c0.1,0.1,0.2,0.2,0.3,0.3
					c0.8-0.6,1.5-1.2,2.3-1.7c1.6-1,3.2-2,4.8-2.9c0.7-0.3,1.5-0.5,2.3-0.5c1.4,0,2.1,0.7,2.3,2.1c0.1,0.8,0.1,1.7,0.2,2.5
					c0.9,0.3,1.5-0.3,2.1-0.6c4.4-2.3,2.5-1.1,5.2-2.8c1.2-0.7,2.2-1.6,3.3-2.4c0.4-0.3,0.9-0.5,1.4-0.6c0.2,0,0.5,0.1,0.7,0.3
					C93.9,34.5,93.9,34.9,93.7,35.1z"/>
			</g>
			<g id="XMLID_53_">
				<path id="XMLID_54_" class="st0" d="M109.2,35.4c-0.2,1.1-0.8,1.5-1.2,1.8c-5.2,4.4-5.7,5.3-8.7,7.5c-2,1.6-4.2,3-6.3,4.5
					c-1.6,1.1-3.4,1.6-5.4,1.7c-0.7,0-1.4-0.1-2.1-0.3c-1-0.3-1.7-1-1.7-2.1c0-1,0.1-2,0.3-2.9c1.4-4.3,4-7.8,7.6-10.7
					c1-0.8,2.2-1.4,3.6-1.3c1.9,0.1,2.5,0.9,1.6,2.6c-0.8,1.8-1.9,3.4-3.5,4.6c-1,0.8-2.1,1.5-3.3,2.1c-0.7,0.4-1.1,0.8-1.3,1.6
					c-0.3,1.2-0.7,2.3-0.2,3.5c0.8,0.3,1.4-0.1,1.9-0.4c1.6-0.9,3.1-1.8,4.6-2.9c4.9-3.6,3-1.7,7.9-5.3c1.4-1,2.9-2,4.3-3
					C107.9,36,108.4,35.8,109.2,35.4z M95.4,34.6c-1.4,0.5-2,1.6-2.7,2.6c-1.5,1.9-1.6,2.2-1.8,3.5c1.9-0.9,3.3-2.3,4.3-4
					C95.4,36.1,95.8,35.5,95.4,34.6z"/>
			</g>
		</g>
		<g id="XMLID_33_">
			<g id="XMLID_49_">
				<path id="XMLID_50_" class="st0" d="M211.6,35.6c-0.4,0.4-0.7,0.9-1.1,1.3c-4,3.7-4.1,4.5-8.2,8.1c-1.6,1.5-3.3,2.8-5.1,3.9
					c-1.9,1.2-4.1,1.7-6.3,1.1c-2.2-0.5-3.2-1.8-3.2-4v-2.3c-0.3,0.2-0.7,0.3-0.9,0.5c-1.4,1.2-2.7,2.4-4.2,3.5
					c-1.6,1.2-3.5,1.7-5.5,1.5c-2.3-0.2-3.3-1.4-3-3.6c0-0.2,0-0.4,0.1-0.6c1-3.2,2.4-6.2,4.8-8.6c1.5-1.5,3.3-2.3,5.4-2.2
					c1.8,0.1,2.5,0.8,2.3,2.6c-0.2,2-0.9,3.8-2.1,5.4c-0.2,0.2-0.5,0.4-0.9,0.8c0-0.6-0.1-1,0-1.3c0.4-1.3,0.8-2.5,1.2-3.7
					c0.3-1.2,0.3-1.2,0-2.4c-0.6-0.3-1.2,0-1.6,0.3c-0.6,0.5-1.2,1-1.7,1.6c-1.8,2.3-3,4.9-3.6,7.7c-0.2,0.8-0.2,0.8,0.3,1.9
					c0.7,0.1,1.3-0.3,1.9-0.7c3.1-2,5.9-4.4,8.8-6.8c0.4-0.3,0.6-0.8,0.9-1.3c2.8-4.8,6.2-9.1,9.8-13.3c1.5-1.7,3.1-3.3,4.8-4.9
					c1-1,2.1-1.7,3.5-1.9l0.6-0.1c2.6-0.2,3.7,1.1,2.8,3.5c-0.3,0.8-0.6,1.4-1,2.1c-2.3,4.3-5.2,8.2-8.5,11.8c-0.9,1-2,2-3,2.8
					c-0.5,0.4-1.1,0.7-1.7,0.9c-0.3,0.1-0.8-0.2-1.2-0.3c0-0.9,0.6-1.3,1-1.8c2.1-2.3,4.3-4.5,6.3-7c1.5-1.9,3-3.9,4.4-6
					c0.5-0.8,0.9-1.7,1.3-2.6c0.2-0.6,0.5-1.3,0-2.1c-1,0.4-1.5,1.1-2.1,1.8c-2.6,3.5-5.3,6.9-7.8,10.4c-1.5,2.2-2.8,4.5-4.1,6.8
					c-1.1,2.1-1.9,4.4-2.3,6.8c-0.1,0.8-0.1,1.5,0.4,2.3c1.7-0.5,3.1-1.4,4.4-2.5c3.1-2.4,6.2-4.9,9.3-7.4c1.9-1.5,0.1,0,2-1.5
					c0.7-0.5,1.5-1,2.4-1.2L211.6,35.6z"/>
			</g>
			<g id="XMLID_45_">
				<path id="XMLID_46_" class="st0" d="M217.3,40.5c0.8-0.4,1.1-1,1.4-1.5c0.7-1,1.4-2.1,2.2-3c0.9-1.1,2.1-1.1,3.3,0
					c-0.3,0.6-0.6,1.3-0.9,1.9c-1.3,2.4-2.5,4.8-3.2,7.4c-0.3,0.8-0.5,1.6-0.3,2.7c0.4-0.2,0.7-0.2,0.9-0.4c0.3-0.2,0.6-0.4,0.8-0.6
					c4.8-4,8.8-7.2,13.6-11.3c0.5-0.3,0.9-0.7,1.6-1.3c-0.1,0.6-0.1,0.9-0.2,1c-0.4,0.5-0.9,1-1.4,1.5c-1.4,1.4-2,1.7-3.4,3.1
					c-1.5,1.5-2.9,3-4.3,4.5c-1.4,1.5-3,3-4.7,4.2c-1.2,0.8-2.4,1.2-3.8,1.1c-1.9-0.1-3-1.1-3.1-3c0-0.3,0-0.5,0-1.1
					c-0.5,0.5-0.8,0.9-1.1,1.2c-1.1,1-2.2,2-3.3,2.9c-1.8,1.3-3.9,1.8-6.1,1.3c-2-0.4-2.8-1.4-2.6-3.4c0-0.7,0.2-1.5,0.5-2.1
					c1.4-3.4,3.4-6.4,6-8.9c1.5-1.4,3.2-2.4,5.2-2.8c0.7-0.1,1.5-0.1,2.2,0c1.3,0.2,1.9,1,1.9,2.3c0,0.8-0.3,1.7-0.5,2.5
					C217.8,39.3,217.6,39.8,217.3,40.5z M207.3,49.1c0.4-0.2,0.7-0.3,1.1-0.5c4.1-2.3,6.7-5.9,8-10.5c0.1-0.6,0.2-1.2,0.1-1.8
					c0-0.5-0.3-1-0.9-1.2c-1,0.3-2,0.8-2.7,1.5c-2.9,3-5,6.4-5.9,10.4C206.8,47.7,206.8,48.3,207.3,49.1z"/>
			</g>
			<g id="XMLID_42_">
				<path id="XMLID_43_" class="st0" d="M236.3,34.2c0.4,0.9,0,1.5-0.3,2.1c-0.6,1.4-1.3,2.7-1.9,4c-0.5,1.2-0.9,2.5-1.3,3.7
					c-0.2,0.4-0.2,0.9-0.2,1.3c0,0.2,0.1,0.4,0.2,0.5c0.7,0.2,1.3-0.2,1.8-0.5c2.3-1.2,4.3-2.9,6-4.9c1.7-2,3.3-4.2,4.7-6.4
					c2.2-3.5,3.1-7.4,3.5-11.4c0-0.8-0.2-1.5-0.3-2.3c1-0.5,1.4-0.4,1.8,0.4c0.2,0.6,0.4,1.3,0.4,1.9c0.1,3.5-0.4,6.9-1.8,10.1
					c-1.6,3.8-3.7,7.2-6.4,10.2c-2,2.2-4.2,3.9-6.9,5c-1.4,0.6-2.9,0.8-4.4,0.6c-1.8-0.2-2.5-1.1-2.3-2.9c0.1-0.8,0.3-1.5,0.5-2.3
					c1-3,2.6-5.6,4.5-8.1C234.3,34.4,235.1,33.7,236.3,34.2z"/>
			</g>
			<g id="XMLID_38_">
				<path id="XMLID_39_" class="st0" d="M250.5,46.9c1.3-0.7,2.2-1.4,3.1-2.2c3.9-3.5,4.8-3.3,8.7-6.8c0.8-0.7,1.5-1.3,2.2-1.9
					c0.3-0.2,0.6-0.3,1.3-0.7c-0.2,0.7-0.2,1-0.5,1.3c-0.7,0.9-1.5,1.7-2.2,2.5c-2,2.3-0.4,0.5-2.5,2.8c-1.5,1.7-3.7,3.7-5.3,5.3
					c-0.9,0.8-2,1.4-3.1,2c-1.1,0.6-2.4,0.6-3.6,0.4c-1.6-0.2-2.4-1.2-2.4-2.8c0-1,0.2-2,0.4-3c0.6-2.9,2-5.5,3.6-8
					c0.4-0.5,0.8-1,1.4-1.3c0.5-0.4,1.1-0.5,1.6,0c0.6,0.4,0.3,0.9,0.1,1.4c-0.5,1.5-1.2,3-1.7,4.5c-0.5,1.8-0.9,3.7-1.3,5.5
					C250.4,46,250.5,46.3,250.5,46.9z M258.3,23.8l-1.1,1.5c-0.8,1-1.5,2-2.3,3.1c-0.1,0.2-0.2,0.4-0.3,0.5c-0.3,0.2-0.7,0.5-1,0.3
					c-0.2-0.1-0.4-0.6-0.5-0.9c0-0.2,0.1-0.5,0.2-0.7c0.7-1.1,1.3-2.3,2-3.3C256,23.5,256.8,23.2,258.3,23.8z"/>
			</g>
			<g id="XMLID_34_">
				<path id="XMLID_35_" class="st0" d="M280,34.7c-0.2,1.1-0.8,1.6-1.4,2c-1.6,1.3-3.2,2.7-4.8,4c-2.2,1.8-4.5,3.6-6.8,5.3
					c-1,0.8-1.5,1.6-1.4,3c0.2,4.2-0.6,8.1-2.3,11.9c-0.7,1.6-1.5,3-2.6,4.3c-1.2,1.3-2.5,2.3-4.3,2.6c-0.4,0.1-0.9,0.2-1.3,0.2
					c-2,0-3.1-1-3.3-3.1c-0.1-1.8,0.2-3.5,0.7-5.2c0.7-2.2,1.9-4.2,3.3-5.9c1.2-1.5,2.4-3,3.8-4.2c1.1-1,1.5-2,1.4-3.4
					c-0.1-1.5-0.1-3.1,0-4.7c0.1-3.2,1.3-5.9,3.6-8.1c0.6-0.6,1.3-1,2-1.4c0.6-0.3,1.3-0.5,2,0c-1.8,2.1-3.3,4.3-3.5,7.2
					c-0.2,1.8,0,3.5,0.3,5.3c1.2-0.5,2.1-1.2,3-1.8c1-0.6,1.9-1.3,2.9-2l2.8-1.9c1-0.7,1.9-1.4,2.8-2.1
					C278,36.1,278.7,35.1,280,34.7z M260.7,52.5c-2,1.8-3.5,4.1-4.6,6.6c-0.7,1.7-1.3,3.4-1.3,5.3c0,0.7-0.1,1.4,0.5,2.1
					c1.3-0.3,2-1.3,2.5-2.3C259.5,60.4,260.6,56.6,260.7,52.5z"/>
			</g>
		</g>
	</g>
	<g id="XMLID_3_">
		<g id="XMLID_29_">
			<path id="XMLID_30_" class="st0" d="M64,90.9c0,0.1-0.1,0.2-0.3,0.2h-4.6c-0.1,0-0.3-0.1-0.3-0.2c0-0.1,0.1-0.2,0.3-0.2h1v-5.7
				h-4.5v5.7h1c0.1,0,0.2,0.1,0.2,0.2c0,0.2-0.1,0.2-0.2,0.2h-4.7c-0.1,0-0.2-0.1-0.2-0.2c0-0.1,0.1-0.2,0.2-0.2h1V79.3h-0.8
				c-0.2,0-0.3-0.1-0.3-0.2s0.1-0.2,0.3-0.2h4.4c0.1,0,0.2,0.1,0.2,0.2s-0.1,0.2-0.2,0.2h-0.9v5.2h4.5v-5.2h-0.7
				c-0.1,0-0.3-0.1-0.3-0.2s0.1-0.2,0.3-0.2h4.3c0.1,0,0.3,0.1,0.3,0.2s-0.1,0.2-0.3,0.2h-0.8v11.3h0.9C63.8,90.6,64,90.7,64,90.9z"
				/>
		</g>
		<g id="XMLID_25_">
			<path id="XMLID_26_" class="st0" d="M88,90.9c0,0.1-0.1,0.2-0.2,0.2h-4.5c-0.1,0-0.2-0.1-0.2-0.2c0-0.1,0.1-0.2,0.2-0.2h1l-0.9-3
				h-5.1l-1,3h1.2c0.1,0,0.2,0.1,0.2,0.2c0,0.1-0.1,0.2-0.2,0.2h-2.7c-0.1,0-0.2-0.1-0.2-0.2c0-0.1,0.1-0.2,0.2-0.2h1l3.7-11.3h-1
				c-0.1,0-0.2-0.1-0.2-0.2s0.1-0.2,0.2-0.2h3.9c0.1,0,0.2,0.1,0.3,0.2l3.6,11.6h0.7C87.9,90.6,88,90.7,88,90.9z M83.2,87.1
				l-2.3-7.6l-2.5,7.6H83.2z"/>
		</g>
		<g id="XMLID_22_">
			<path id="XMLID_23_" class="st0" d="M110.7,79c0,0.1-0.1,0.2-0.2,0.2h-1.2v11.6c0,0.3-0.1,0.5-0.2,0.5s-0.3-0.1-0.5-0.3L101,80.1
				v10.5h1.6c0.1,0,0.3,0.1,0.3,0.2c0,0.2-0.1,0.2-0.3,0.2h-3.2c-0.1,0-0.2-0.1-0.2-0.2c0-0.1,0.1-0.2,0.2-0.2h1.1V79.3h-1
				c-0.1,0-0.2-0.1-0.2-0.2c0-0.2,0.1-0.2,0.2-0.2h3.8c0.1,0,0.1,0,0.2,0.1l5.3,7.7v-7.3h-1.2c-0.2,0-0.3-0.1-0.3-0.2
				s0.1-0.2,0.3-0.2h2.9C110.6,78.8,110.7,78.9,110.7,79z"/>
		</g>
		<g id="XMLID_18_">
			<path id="XMLID_19_" class="st0" d="M134.2,84.9c0,3.7-2.5,6.2-6.2,6.2h-5.1c-0.1,0-0.2-0.1-0.2-0.2c0-0.1,0.1-0.2,0.2-0.2h1
				V79.3h-0.8c-0.1,0-0.2-0.1-0.2-0.2s0.1-0.2,0.2-0.2h5C131.7,78.8,134.2,81.2,134.2,84.9z M128,90.6c1.2,0,2.3-0.3,3.1-0.8v-9.7
				c-0.9-0.5-1.9-0.8-3.1-0.8h-1.4v11.3H128z"/>
		</g>
		<g id="XMLID_15_">
			<path id="XMLID_16_" class="st0" d="M161.5,90.9c0,0.1-0.1,0.2-0.2,0.2h-4.5c-0.2,0-0.3-0.1-0.3-0.2c0-0.1,0.1-0.2,0.3-0.2h0.8
				V80.2l0,0.1l-4.1,10.9c-0.1,0.1-0.1,0.2-0.2,0.2c-0.1,0-0.2-0.1-0.2-0.2l-5.1-11v10.4h1.5c0.2,0,0.2,0.1,0.2,0.2
				c0,0.1-0.1,0.2-0.2,0.2H146c-0.2,0-0.2-0.1-0.2-0.2c0-0.1,0.1-0.2,0.2-0.2h1.2V79.3h-1c-0.1,0-0.3-0.1-0.3-0.2s0.1-0.2,0.3-0.2
				h3.6c0.1,0,0.2,0.1,0.3,0.2l4,8.5l3.2-8.5c0.1-0.2,0.2-0.2,0.3-0.2h3.3c0.2,0,0.2,0.1,0.2,0.2c0,0.1-0.1,0.2-0.2,0.2h-0.8v11.3h1
				C161.4,90.6,161.5,90.7,161.5,90.9z"/>
		</g>
		<g id="XMLID_11_">
			<path id="XMLID_12_" class="st0" d="M185.5,90.9c0,0.1-0.1,0.2-0.2,0.2h-4.5c-0.1,0-0.2-0.1-0.2-0.2c0-0.1,0.1-0.2,0.2-0.2h1
				l-0.9-3h-5.1l-1,3h1.2c0.1,0,0.2,0.1,0.2,0.2c0,0.1-0.1,0.2-0.2,0.2h-2.7c-0.1,0-0.2-0.1-0.2-0.2c0-0.1,0.1-0.2,0.2-0.2h1
				l3.7-11.3h-1c-0.1,0-0.2-0.1-0.2-0.2s0.1-0.2,0.2-0.2h3.9c0.1,0,0.2,0.1,0.3,0.2l3.6,11.6h0.7C185.4,90.6,185.5,90.7,185.5,90.9z
				 M180.7,87.1l-2.3-7.6l-2.5,7.6H180.7z"/>
		</g>
		<g id="XMLID_7_">
			<path id="XMLID_8_" class="st0" d="M208.6,84.9c0,3.7-2.5,6.2-6.2,6.2h-5.1c-0.1,0-0.2-0.1-0.2-0.2c0-0.1,0.1-0.2,0.2-0.2h1V79.3
				h-0.8c-0.1,0-0.2-0.1-0.2-0.2s0.1-0.2,0.2-0.2h5C206.2,78.8,208.6,81.2,208.6,84.9z M202.5,90.6c1.2,0,2.3-0.3,3.1-0.8v-9.7
				c-0.9-0.5-1.9-0.8-3.1-0.8h-1.4v11.3H202.5z"/>
		</g>
		<g id="XMLID_4_">
			<path id="XMLID_5_" class="st0" d="M229.1,88.6v2.3c0,0.1-0.1,0.2-0.3,0.2h-8c-0.2,0-0.2-0.1-0.2-0.2c0-0.1,0.1-0.2,0.2-0.2h0.8
				V79.3H221c-0.2,0-0.2-0.1-0.2-0.2c0-0.1,0.1-0.2,0.2-0.2h7.8c0.2,0,0.3,0.1,0.3,0.2v2c0,0.2-0.1,0.2-0.3,0.2
				c-0.1,0-0.3-0.1-0.3-0.2v-1.8h-4v5.2h3.5v-1c0-0.2,0.1-0.2,0.3-0.2c0.1,0,0.3,0.1,0.3,0.2v2.4c0,0.2-0.1,0.2-0.2,0.2
				c-0.2,0-0.3-0.1-0.3-0.2v-0.9h-3.5v5.7h4.1v-2c0-0.2,0.1-0.3,0.3-0.3C229,88.3,229.1,88.4,229.1,88.6z"/>
		</g>
	</g>
</g>
</svg>
