<?xml version="1.0" encoding="utf-8"?>
<!-- Generator: Adobe Illustrator 19.0.0, SVG Export Plug-In . SVG Version: 6.00 Build 0)  -->
<svg version="1.1" id="Layer_1" xmlns="http://www.w3.org/2000/svg" xmlns:xlink="http://www.w3.org/1999/xlink" x="0px" y="0px"
	 viewBox="0 0 280 100" style="enable-background:new 0 0 280 100;" xml:space="preserve">
<style type="text/css">
	.st0{fill:#231F20;}
</style>
<g id="XMLID_2_">
	<g id="XMLID_55_">
		<g id="XMLID_64_">
			<path id="XMLID_65_" class="st0" d="M47,44.8c-0.3,1.5-1.2,1.9-1.9,2.5c-6,5.2-7.2,6.4-13.2,11.6c-2.2,1.9-4.1,4.1-6.3,6.2
				c-1.2,1.1-2,2.5-2.5,4.1c-1.6,5.1-3.7,10-6.4,14.6c-1.5,2.7-3.3,5.3-5.6,7.4c-1.4,1.3-2.8,2.4-4.7,2.8c-0.6,0.1-1.3,0.3-1.9,0.2
				c-2.7-0.1-3.9-1.7-2.9-4.2c0.7-1.9,1.7-3.7,2.8-5.4C8,79.3,12,74.5,16.3,69.8c1.2-1.3,2.1-2.8,2.6-4.5c1.7-5.6,3.5-11.2,5.3-16.7
				c0.4-1.1,0.6-2.1,1.1-3.1c0.3-0.6,0.7-1.3,1.2-1.8c1-0.9,2.2-0.4,2.4,0.9c0.1,0.8,0,1.5-0.1,2.2c-0.6,3.5-1.4,7-2.1,10.5
				c-0.1,0.6-0.2,1.2-0.4,2.2l2.5-1.9c6.3-4.9,7.7-5.8,14-10.7c0.8-0.6,1.6-1.2,2.5-1.7C45.6,45,46.2,45,47,44.8z M13.4,79.7
				c-3.5,3.9-6.7,8.9-7.2,11.6C9.6,88,11.6,84.2,13.4,79.7z M38.5,29.9l-1.2,1.3c-1.6,1.6-3.2,3.2-4.8,4.9c-0.3,0.2-0.5,0.6-0.8,0.8
				c-0.6,0.5-1.5,0.9-2.2,0.4c-0.9-0.6-0.5-1.5-0.1-2.2c1.2-1.8,2.3-3.6,3.8-5.1C34.5,28.5,36.3,28.6,38.5,29.9z"/>
		</g>
		<g id="XMLID_60_">
			<path id="XMLID_61_" class="st0" d="M70.5,45.1c-0.2,1.5-1.1,2.1-1.7,2.6c-7.3,6.2-8.1,7.4-12.3,10.6c-2.8,2.3-5.9,4.3-8.9,6.3
				c-2.3,1.5-4.8,2.2-7.6,2.4C39,66.9,38,66.7,37,66.4c-1.4-0.4-2.4-1.5-2.4-2.9c0-1.4,0.1-2.8,0.5-4.1c2-6.1,5.7-11,10.7-15.1
				c1.4-1.2,3.1-1.9,5.1-1.8c2.6,0.1,3.5,1.3,2.3,3.7c-1.2,2.6-2.7,4.8-4.9,6.5c-1.4,1.1-3,2.1-4.6,3c-1,0.5-1.5,1.2-1.8,2.2
				c-0.5,1.6-0.9,3.3-0.2,4.9c1.2,0.4,2-0.1,2.7-0.6c2.2-1.3,4.4-2.6,6.5-4.1c6.9-5.1,4.2-2.4,11.1-7.5c2-1.5,4.1-2.8,6.1-4.2
				C68.6,46,69.4,45.7,70.5,45.1z M50.9,44c-1.9,0.6-2.8,2.3-3.8,3.6c-2.1,2.7-2.3,3.1-2.6,4.9c2.6-1.3,4.7-3.2,6-5.7
				C51,46.1,51.5,45.2,50.9,44z"/>
		</g>
		<g id="XMLID_56_">
			<path id="XMLID_57_" class="st0" d="M90.6,44.1c-0.2,1.5-1.1,2.2-1.9,2.9c-2.2,1.9-4.5,3.8-6.8,5.6c-3.1,2.5-6.3,5.1-9.5,7.5
				c-1.4,1.1-2.1,2.3-1.9,4.2c0.4,5.9-0.8,11.5-3.2,16.8c-1,2.2-2.1,4.3-3.7,6.1c-1.6,1.8-3.5,3.2-6,3.7c-0.6,0.1-1.2,0.2-1.9,0.2
				c-2.9,0-4.4-1.5-4.6-4.4c-0.2-2.5,0.2-4.9,0.9-7.3c1-3.1,2.6-5.9,4.7-8.4c1.6-2.1,3.4-4.2,5.3-5.9c1.5-1.4,2.1-2.9,1.9-4.8
				c-0.2-2.2-0.1-4.4,0-6.6c0.1-4.5,1.8-8.4,5.1-11.5c0.8-0.8,1.9-1.5,2.9-2c0.8-0.5,1.8-0.6,2.8,0.1c-2.5,3-4.6,6.1-5,10.1
				c-0.2,2.5,0.1,4.9,0.5,7.5c1.7-0.6,2.9-1.7,4.3-2.6c1.4-0.9,2.7-1.8,4.1-2.8l3.9-2.6c1.4-1,2.7-2,4-2.9
				C87.7,46.1,88.7,44.7,90.6,44.1z M63.4,69.2c-2.9,2.6-5,5.8-6.5,9.3c-1,2.4-1.8,4.8-1.9,7.4c0,0.9-0.1,2,0.6,2.9
				c1.9-0.5,2.8-1.8,3.5-3.3C61.6,80.4,63.1,75,63.4,69.2z"/>
		</g>
	</g>
	<g id="XMLID_51_">
		<path id="XMLID_52_" class="st0" d="M84.1,81.9H9.2V7h74.9V81.9z M10.8,80.3h71.6V8.7H10.8V80.3z"/>
	</g>
	<g id="XMLID_27_">
		<g id="XMLID_48_">
			<path id="XMLID_49_" class="st0" d="M126.6,20L120,42.5h-2.7l-5.8-20l-5.9,20h-2.8L96.5,20h2.3l5.6,20l5.9-20h2.7l5.7,20l5.8-20
				H126.6z"/>
		</g>
		<g id="XMLID_45_">
			<path id="XMLID_46_" class="st0" d="M138.4,40.6h9.3v1.9h-11.6V20h11.4c-0.1,0.4-0.1,0.7-0.1,1c0,0.3-0.1,0.6-0.1,0.9h-8.9v8h8.4
				v1.9h-8.4V40.6z"/>
		</g>
		<g id="XMLID_41_">
			<path id="XMLID_42_" class="st0" d="M175.6,31.3c0,1.7-0.2,3.3-0.7,4.7c-0.4,1.4-1.1,2.6-2,3.5c-0.9,1-2.1,1.7-3.5,2.2
				c-1.4,0.5-3.1,0.8-5,0.8h-5.8V31.3V20.1h5.8c1.9,0,3.6,0.3,5,0.8c1.4,0.5,2.5,1.3,3.5,2.2c0.9,1,1.6,2.1,2,3.5
				C175.4,28,175.6,29.5,175.6,31.3L175.6,31.3z M164.4,40.6c2.9,0,5.2-0.8,6.6-2.5c1.5-1.7,2.3-3.9,2.3-6.9v0c0-1.6-0.2-3-0.6-4.2
				c-0.4-1.2-1-2.1-1.8-2.9c-0.8-0.8-1.7-1.3-2.8-1.7c-1.1-0.4-2.3-0.5-3.7-0.5h-3.5v18.6H164.4z"/>
		</g>
		<g id="XMLID_37_">
			<path id="XMLID_38_" class="st0" d="M203.7,31.3c0,1.7-0.2,3.3-0.7,4.7c-0.4,1.4-1.1,2.6-2,3.5c-0.9,1-2.1,1.7-3.5,2.2
				c-1.4,0.5-3.1,0.8-5,0.8h-5.8V31.3V20.1h5.8c1.9,0,3.6,0.3,5,0.8c1.4,0.5,2.5,1.3,3.5,2.2c0.9,1,1.6,2.1,2,3.5
				C203.5,28,203.7,29.5,203.7,31.3L203.7,31.3z M192.5,40.6c2.9,0,5.2-0.8,6.6-2.5c1.5-1.7,2.3-3.9,2.3-6.9v0c0-1.6-0.2-3-0.6-4.2
				c-0.4-1.2-1-2.1-1.8-2.9s-1.7-1.3-2.8-1.7c-1.1-0.4-2.3-0.5-3.7-0.5H189v18.6H192.5z"/>
		</g>
		<g id="XMLID_34_">
			<path id="XMLID_35_" class="st0" d="M214.7,20h2.2v22.5h-2.2V20z"/>
		</g>
		<g id="XMLID_31_">
			<path id="XMLID_32_" class="st0" d="M228.4,42.5V20h2.6l11.9,19.8V20h2.2v22.5h-2.9l-11.7-19.4v19.4H228.4z"/>
		</g>
		<g id="XMLID_28_">
			<path id="XMLID_29_" class="st0" d="M274.7,30.3v11.2c-0.6,0.3-1.3,0.5-1.9,0.7c-0.6,0.2-1.4,0.3-2.4,0.5c-1,0.1-2.1,0.2-3.4,0.2
				c-0.7,0-1.5-0.1-2.3-0.2c-0.8-0.1-1.6-0.4-2.4-0.7c-0.8-0.3-1.6-0.8-2.3-1.3c-0.7-0.6-1.4-1.3-2-2.2c-0.6-0.9-1-1.9-1.4-3.1
				c-0.3-1.2-0.5-2.6-0.5-4.2c0-2.3,0.4-4.3,1.1-5.8c0.7-1.5,1.6-2.7,2.7-3.6c1.1-0.9,2.3-1.5,3.5-1.8c1.3-0.3,2.5-0.5,3.6-0.5
				c0.7,0,1.4,0,2.2,0.1c0.8,0.1,1.5,0.2,2.2,0.3c0.7,0.1,1.3,0.2,1.9,0.4c0.6,0.1,1,0.3,1.4,0.4v2c-0.2-0.1-0.6-0.2-1.1-0.4
				c-0.5-0.2-1.1-0.3-1.9-0.5c-0.7-0.1-1.5-0.3-2.3-0.4c-0.8-0.1-1.6-0.1-2.4-0.1c-1.2,0-2.3,0.2-3.3,0.5c-1,0.3-2,0.9-2.7,1.6
				c-0.8,0.8-1.4,1.8-1.9,3c-0.5,1.2-0.7,2.7-0.7,4.5v0c0,1.8,0.2,3.3,0.7,4.6c0.5,1.2,1.1,2.2,1.9,3c0.8,0.8,1.7,1.3,2.7,1.6
				c1,0.3,2.2,0.5,3.3,0.5c0.8,0,1.5,0,2.1-0.1c0.6,0,1.2-0.1,1.8-0.2c0.6-0.1,1.1-0.3,1.5-0.5v-7.9h-5.5v-1.9H274.7z"/>
		</g>
	</g>
	<g id="XMLID_3_">
		<g id="XMLID_23_">
			<path id="XMLID_24_" class="st0" d="M196.1,61.4c0.6-0.3,0.7-0.7,0.9-1c0.5-0.7,0.9-1.4,1.5-2c0.6-0.8,1.4-0.7,2.2,0
				c-0.2,0.4-0.4,0.8-0.6,1.3c-0.8,1.6-1.7,3.2-2.1,5c-0.2,0.6-0.3,1.1-0.2,1.8c0.3-0.1,0.4-0.2,0.6-0.3c0.2-0.1,0.4-0.3,0.6-0.4
				c3.2-2.7,5.9-4.8,9.1-7.5c0.3-0.2,0.6-0.4,1.1-0.8c-0.1,0.4-0.1,0.6-0.2,0.7c-0.3,0.4-0.6,0.7-0.9,1c-0.9,0.9-1.3,1.1-2.3,2.1
				c-1,1-1.9,2-2.9,3c-0.9,1-2,2-3.1,2.8c-0.8,0.5-1.6,0.8-2.6,0.8c-1.3-0.1-2-0.7-2.1-2c0-0.2,0-0.4,0-0.7
				c-0.4,0.4-0.5,0.6-0.8,0.8c-0.7,0.7-1.5,1.4-2.2,2c-1.2,0.9-2.6,1.2-4.1,0.9c-1.3-0.3-1.9-0.9-1.7-2.3c0-0.5,0.1-1,0.3-1.4
				c0.9-2.3,2.3-4.3,4-6c1-0.9,2.1-1.6,3.5-1.9c0.5-0.1,1-0.1,1.4,0c0.8,0.1,1.3,0.6,1.3,1.5c0,0.6-0.2,1.1-0.3,1.6
				C196.5,60.6,196.3,60.9,196.1,61.4z M189.4,67.1c0.3-0.1,0.5-0.2,0.8-0.3c2.8-1.6,4.5-4,5.4-7c0.1-0.4,0.1-0.8,0.1-1.2
				c0-0.4-0.2-0.7-0.6-0.8c-0.7,0.2-1.3,0.5-1.8,1c-2,2-3.3,4.3-4,7C189.1,66.2,189.1,66.6,189.4,67.1z"/>
		</g>
		<g id="XMLID_18_">
			<path id="XMLID_19_" class="st0" d="M212.4,60.5c-0.9,0.5-1.5,0.9-2.2,1.3c-1,0.5-2,0.8-3.1,0.7c-0.4-0.1-0.8-0.1-1.1-0.3
				c-0.7-0.3-0.9-0.9-0.7-1.6c0.1-0.3,0.2-0.6,0.4-0.8c0.7-1.2,1.6-2.1,2.8-2.8c0.7-0.4,1.5-0.6,2.3-0.5c0.8,0.1,1.3,0.6,1.1,1.4
				c-0.1,0.6-0.3,1.1-0.5,1.9c1.6-1.1,2.9-2.3,4.2-3.5c0.3-0.3,0.5-0.5,0.8-0.7c0.4-0.3,1-0.3,1.3,0s0.2,0.7,0.1,1.1
				c-0.6,1.3-1.2,2.6-1.8,3.9c-0.3,0.5-0.6,1.1-0.9,1.8c0.4-0.1,0.6-0.2,0.8-0.3c2.2-1.1,4.4-2.2,6.7-3.2c0.4-0.2,0.9-0.5,1.5-0.3
				c-0.2,0.6-0.7,0.7-1.1,0.9c-2.2,1.2-4.4,2.3-6.6,3.5c-1.6,0.8-2.7,1.8-3.5,3.5c-1.5,2.8-3.1,5.5-4.8,8.2c-1.1,1.9-2.5,3.6-4,5.1
				c-0.7,0.6-1.4,1.2-2.1,1.7c-0.9,0.6-2,0.7-3,0.5c-1-0.2-1.5-0.8-1.5-1.8c0.1-0.7,0.2-1.4,0.5-2c0.5-1.1,1-2.1,1.7-3.1
				c2.2-3.2,4.9-5.9,8.1-8c1.7-1.1,3-2.5,3.8-4.3c0.3-0.5,0.6-1,0.9-1.5C212.3,60.9,212.3,60.9,212.4,60.5z M199.6,80.4
				c0.4-0.3,0.7-0.4,0.9-0.6c0.6-0.7,1.3-1.3,1.8-2.1c2.1-2.9,3.8-6.1,5.6-9.2c0-0.1,0-0.1-0.1-0.3c-2.5,2.1-4.8,4.4-6.5,7.2
				c-0.6,0.9-1.1,2-1.5,3C199.6,79,199.4,79.6,199.6,80.4z M210.6,60c-0.2-0.6-0.2-0.6,0-1.3c0.2-0.6,0.5-1.1,0.1-1.7
				c-1.1,0.1-2.2,1-3,2.2c-0.4,0.6-0.7,1.3-0.3,2C208.5,61.3,209.2,61,210.6,60z"/>
		</g>
		<g id="XMLID_14_">
			<path id="XMLID_15_" class="st0" d="M234.5,58c-0.1,0.7-0.5,1-0.8,1.2c-3.5,2.9-3.8,3.5-5.8,5c-1.3,1.1-2.8,2-4.2,3
				c-1.1,0.7-2.3,1.1-3.6,1.1c-0.4,0-0.9-0.1-1.4-0.2c-0.7-0.2-1.1-0.7-1.1-1.4c0-0.7,0.1-1.3,0.2-2c0.9-2.9,2.7-5.2,5-7.1
				c0.7-0.6,1.5-0.9,2.4-0.9c1.3,0.1,1.6,0.6,1.1,1.8c-0.6,1.2-1.3,2.3-2.3,3.1c-0.7,0.5-1.4,1-2.2,1.4c-0.5,0.3-0.7,0.6-0.9,1.1
				c-0.2,0.8-0.4,1.6-0.1,2.3c0.6,0.2,0.9-0.1,1.3-0.3c1.1-0.6,2.1-1.2,3.1-2c3.3-2.4,2-1.1,5.3-3.6c0.9-0.7,1.9-1.3,2.9-2
				C233.6,58.4,233.9,58.3,234.5,58z M225.2,57.5c-0.9,0.3-1.3,1.1-1.8,1.7c-1,1.3-1.1,1.5-1.2,2.3c1.3-0.6,2.2-1.5,2.8-2.7
				C225.2,58.5,225.5,58.1,225.2,57.5z"/>
		</g>
		<g id="XMLID_11_">
			<path id="XMLID_12_" class="st0" d="M234.1,61.8c0.4-0.3,0.8-0.6,1.3-0.9c1.3-0.9,2.6-1.7,3.9-2.6c0.6-0.4,1.3-0.6,2.1-0.6
				c1.5,0,2.3,0.8,2.1,2.3c-0.1,0.8-0.2,1.5-0.3,2.2c0,0.2,0,0.4,0,0.6c0.5,0.3,0.9-0.1,1.2-0.3c2.8-1.6,5.6-3.2,8.3-4.9
				c0.3-0.2,0.7-0.4,1-0.6c0.2-0.1,0.5-0.1,0.8,0c0.3,0.1,0.5,0.5,0.3,0.7c-0.2,0.3-0.4,0.5-0.7,0.7c-2,1.4-3.9,2.8-5.9,4.1
				c-1,0.6-2,1.2-3.1,1.7c-1,0.4-2,0.6-3.1,0.4c-1.1-0.2-1.6-0.7-1.5-1.9c0.1-0.8,0.3-1.5,0.4-2.3l0.2-1.7c-0.5,0.2-0.8,0.3-1.1,0.5
				c-2.4,1.6-4.8,3.3-6.8,5.4c-0.2,0.2-0.4,0.4-0.6,0.5c-0.5,0.4-1.1,0.5-1.7,0.4c-0.7-0.1-0.9-0.6-0.7-1.2c0.7-1.5,1.4-2.9,2.1-4.4
				c0.4-0.8,0.9-1.6,1.4-2.3c0.1-0.3,0.4-0.5,0.6-0.6c0.4-0.3,0.9,0.1,0.9,0.6c-0.1,0.6-0.3,1.1-0.5,1.6c-0.3,0.8-0.6,1.6-1,2.4
				C234,61.7,234.1,61.7,234.1,61.8z"/>
		</g>
		<g id="XMLID_8_">
			<path id="XMLID_9_" class="st0" d="M254.3,63.6c0.7-1.9,2.1-3.4,1.8-5.6c-0.4,0.1-0.7,0.1-0.9,0.3c-0.6,0.6-1.2,1.2-1.6,1.9
				c-1,1.8-1.7,3.7-2.3,5.7c-0.2,0.7-0.3,1.5,0,2.2c0.6,0.1,1-0.3,1.5-0.6c2.3-1.5,4.4-3.2,6.4-5.1c2.4-2.2,2-1.6,4.4-3.8
				c0.3-0.3,0.6-0.7,1.3-0.8c-0.1,0.3-0.2,0.6-0.3,0.7c-4.1,4.5-5.2,6.3-10.2,9.8c-0.8,0.6-1.6,1.1-2.6,1.3
				c-0.8,0.2-1.6,0.1-2.3-0.1c-1.1-0.4-1.7-1.2-1.8-2.3c0-0.5,0.1-0.9,0.2-1.4c0.6-2.3,1.6-4.3,3.1-6.1c0.7-0.9,1.6-1.5,2.6-2.1
				c0.7-0.3,1.4-0.5,2.1-0.4c1,0.1,1.5,0.6,1.3,1.6c-0.3,1.5-0.8,3-1.6,4.4C255.3,63.5,255,63.8,254.3,63.6z"/>
		</g>
		<g id="XMLID_4_">
			<path id="XMLID_5_" class="st0" d="M269.4,61.4c-0.6,0.4-1.1,0.9-1.7,1.4c-0.9,0.6-1.8,1.2-2.8,1.7c-0.8,0.4-1.6,0.5-2.5,0.4
				c-1-0.1-1.5-0.8-1.3-1.7c0.3-1.8,2.3-5.1,3.7-6.4c0.5-0.5,1.2-0.6,2-0.1c-0.8,1.6-2.8,4.8-3.2,6.6c0.5,0.2,0.8-0.1,1.1-0.3
				c1.8-1,3.5-2.3,5-3.7l2.5-2.1c0.5-0.5,1.1-0.7,1.8-0.4c0.4,0.2,0.6,0.4,0.5,0.8c-0.1,0.4-0.3,0.9-0.4,1.3c-0.4,1-0.9,1.9-1.3,2.8
				c-0.1,0.3-0.2,0.6-0.4,1c0.8-0.2,1.2-0.7,1.6-1c0.5-0.3,1-0.7,1.4-1.1c0.5-0.4,1-0.7,1.5-1.1l1.5-1.1c0.5-0.3,1-0.7,1.6-0.9
				c-0.1,0.2-0.2,0.4-0.4,0.6c-0.9,0.8-1.9,1.5-2.8,2.3c-1.6,1.3-3.2,2.5-4.8,3.8c-0.6,0.4-1,1-1.3,1.6c-1.6,3.5-3.4,6.8-5.6,10
				c-0.7,1-1.5,2-2.3,2.9c-1.1,1.2-2.5,2.2-4.2,2.5c-0.5,0.1-1.1,0-1.6-0.1c-0.7-0.1-1-0.6-1-1.3c-0.1-0.9,0.1-1.7,0.6-2.4
				c0.8-1.2,1.5-2.3,2.4-3.4c1.6-1.9,3.5-3.6,5.6-5.1c1.6-1.1,2.9-2.5,3.7-4.4c0.4-1,1-2,1.5-3C269.6,61.5,269.5,61.4,269.4,61.4z
				 M258,80c0.4-0.2,0.8-0.3,1-0.5c0.9-0.6,1.6-1.5,2.1-2.4c1.3-2.2,2.5-4.4,3.8-6.6l0.2-0.6c-0.3,0.1-0.4,0.2-0.4,0.3
				c-1.7,1.5-3.3,3.1-4.6,4.9c-0.7,0.9-1.2,1.9-1.8,2.8C258,78.6,257.8,79.2,258,80z"/>
		</g>
	</g>
</g>
</svg>
