<?xml version="1.0" encoding="utf-8"?>
<!-- Generator: Adobe Illustrator 16.0.0, SVG Export Plug-In . SVG Version: 6.00 Build 0)  -->
<!DOCTYPE svg PUBLIC "-//W3C//DTD SVG 1.1//EN" "http://www.w3.org/Graphics/SVG/1.1/DTD/svg11.dtd">
<svg version="1.1" id="Layer_1" xmlns="http://www.w3.org/2000/svg" xmlns:xlink="http://www.w3.org/1999/xlink" x="0px" y="0px"
	 width="80px" height="27px" viewBox="0 0 80 27" enable-background="new 0 0 80 27" xml:space="preserve">
<g>
	<path fill="#F2634B" d="M7.581,13.754v12.181H0.775V1.155H6.08l9.947,12.599V1.155h6.806v24.78h-5.41L7.581,13.754z"/>
	<g>
		<path fill="#F2634B" d="M67.437,18.752h6.638c-0.002-0.038-0.007-0.071-0.007-0.111v-6.073h3.596V7.577h-3.596V1.818h-6.631v5.759
			h-2.269v4.991h2.269V18.752z"/>
		<path fill="#F2634B" d="M78.305,21.597H67.46c0.049,0.731,0.185,1.364,0.413,1.896c0.29,0.676,0.686,1.221,1.187,1.641
			c0.5,0.418,1.087,0.721,1.763,0.906c0.675,0.188,1.384,0.279,2.129,0.279c1.023,0,2.064-0.133,3.123-0.4s2.054-0.6,2.984-0.994
			L78.305,21.597z"/>
	</g>
	<path fill="#F2634B" d="M32.375,21.597v-2.73c-0.003-0.03-0.011-0.056-0.014-0.087h0.014v-0.027h12.869
		c0.043-0.271,0.083-0.581,0.117-0.932c0.035-0.359,0.053-0.715,0.053-1.064c0-1.256-0.215-2.461-0.645-3.612
		c-0.432-1.151-1.072-2.164-1.92-3.036C42,9.235,40.947,8.537,39.69,8.013s-2.699-0.785-4.328-0.785
		c-1.652,0-3.101,0.262-4.345,0.785c-1.245,0.523-2.292,1.228-3.141,2.111c-0.85,0.885-1.489,1.92-1.92,3.106
		c-0.431,1.187-0.646,2.443-0.646,3.769c0,1.234,0.221,2.408,0.663,3.525c0.442,1.117,1.087,2.105,1.937,2.967
		c0.849,0.861,1.902,1.541,3.159,2.041s2.688,0.75,4.293,0.75c2.256,0,4.159-0.465,5.706-1.395c1.436-0.864,2.51-1.968,3.256-3.292
		H32.375z M33.199,12.708c0.535-0.512,1.222-0.768,2.059-0.768c0.838,0,1.524,0.256,2.06,0.768c0.535,0.512,0.86,1.21,0.977,2.093
		h-6.073C32.338,13.917,32.663,13.22,33.199,12.708z"/>
	<g>
		<polygon fill="#F2634B" points="49.904,18.752 59.771,18.752 58.397,16.756 64.54,7.577 57.805,7.577 55.187,12.079 
			54.838,12.812 54.488,12.079 51.871,7.577 45.135,7.577 51.277,16.756 		"/>
		<polygon fill="#F2634B" points="55.254,21.597 57.979,25.936 64.715,25.936 61.729,21.597 		"/>
		<polygon fill="#F2634B" points="47.946,21.597 44.961,25.936 51.696,25.936 54.421,21.597 		"/>
	</g>
</g>
</svg>
