<?xml version="1.0" encoding="utf-8"?>
<!-- Generator: Adobe Illustrator 19.0.0, SVG Export Plug-In . SVG Version: 6.00 Build 0)  -->
<svg version="1.1" id="Layer_1" xmlns="http://www.w3.org/2000/svg" xmlns:xlink="http://www.w3.org/1999/xlink" x="0px" y="0px"
	 viewBox="0 0 85 85" style="enable-background:new 0 0 85 85;" xml:space="preserve">
<style type="text/css">
	.st0{fill:#FFFFFF;}
</style>
<g id="XMLID_1_">
	<path id="XMLID_3_" class="st0" d="M26.1,31.5c-2.6,3.2-3.8,6.4-3.8,9.7c0,1.4,0.2,2.6,0.5,3.6c1.9-1.5,4-2.2,6.3-2.2
		c3.1,0,5.6,1,7.7,3c2.1,2,3.2,4.6,3.2,7.9c0,2.1-0.5,3.9-1.5,5.6c-1,1.7-2.3,3-4,3.9c-1.7,0.9-3.5,1.4-5.4,1.4
		c-4.4,0-7.7-1.8-10.1-5.4c-1.9-3-2.9-6.7-2.9-11.2c0-5.7,1.5-10.8,4.4-15.4s7.3-8.2,13.2-10.9l1.6,3.1
		C31.7,25.9,28.6,28.3,26.1,31.5z M55,31.5c-2.6,3.2-3.8,6.4-3.8,9.7c0,1.4,0.2,2.6,0.5,3.6c1.9-1.5,4-2.2,6.3-2.2
		c3.1,0,5.7,1,7.8,3c2.1,2,3.1,4.6,3.1,7.9c0,3.1-1.1,5.7-3.2,7.8c-2.1,2.1-4.7,3.1-7.7,3.1c-4.4,0-7.7-1.8-10.1-5.4
		c-1.9-3-2.9-6.7-2.9-11.2c0-5.7,1.5-10.8,4.4-15.4c2.9-4.5,7.3-8.2,13.2-10.9l1.6,3.1C60.6,25.9,57.6,28.3,55,31.5z"/>
</g>
</svg>
