<?xml version="1.0" encoding="utf-8"?>
<!-- Generator: Adobe Illustrator 19.0.0, SVG Export Plug-In . SVG Version: 6.00 Build 0)  -->
<svg version="1.1" id="Layer_1" xmlns="http://www.w3.org/2000/svg" xmlns:xlink="http://www.w3.org/1999/xlink" x="0px" y="0px"
	 viewBox="0 0 95 95" style="enable-background:new 0 0 95 95;" xml:space="preserve">
<style type="text/css">
	.st0{fill-rule:evenodd;clip-rule:evenodd;fill:#212121;}
</style>
<path id="XMLID_10_" class="st0" d="M10.3,57.9c0.9,2.9,2.1,5.7,3.5,8.3l-4.2,5.4c-1.4,1.7-1.2,4.2,0.3,5.7l7.2,7.3
	c1.5,1.6,4,1.7,5.8,0.3l5.2-4.2c2.7,1.5,5.6,2.8,8.6,3.7l0.9,6.7c0.3,2.2,2,3.9,4.3,3.9h10.3c2.1,0,4-1.7,4.3-3.9l0.8-6.5
	c3.2-0.9,6.3-2.1,9.2-3.8l5.1,4c1.7,1.4,4.2,1.3,5.8-0.3l7.2-7.3c1.5-1.5,1.7-4,0.3-5.7l-4-5c1.6-2.9,3-5.9,3.8-9.1l6.1-0.7
	c2.2-0.3,3.9-2.1,3.9-4.3V42.1c0-2.2-1.7-4-3.9-4.3l-6-0.8c-0.9-3.2-2.1-6.1-3.7-9l3.7-4.7c1.5-1.7,1.3-4.2-0.3-5.8l-7.2-7.2
	c-1.6-1.5-4.1-1.7-5.8-0.3l-4.5,3.6c-3-1.7-6.1-3.1-9.5-3.9l-0.7-6C56.7,1.7,54.8,0,52.6,0H42.4c-2.2,0-4.1,1.7-4.3,3.8l-0.7,6
	c-3.3,0.9-6.7,2.2-9.6,4.1L23,10.1c-1.8-1.4-4.3-1.3-5.8,0.3L10,17.7c-1.6,1.6-1.7,4.1-0.3,5.8l3.9,5c-1.5,2.8-2.7,5.9-3.6,9
	l-6.3,0.8c-2.2,0.3-3.8,2-3.8,4.3v10.2c0,2.2,1.6,4.1,3.8,4.3L10.3,57.9z M47.3,12.3c19.4,0,35.2,15.8,35.2,35.2
	c0,19.4-15.8,35.2-35.2,35.2c-19.4,0-35.2-15.8-35.2-35.2C12.1,28.1,27.9,12.3,47.3,12.3L47.3,12.3z M47.3,19.2
	c15.6,0,28.3,12.7,28.3,28.3c0,15.6-12.7,28.3-28.3,28.3C31.7,75.8,19,63.1,19,47.5C19,31.9,31.7,19.2,47.3,19.2L47.3,19.2z
	 M38.6,45.9C38.6,46,38.6,46,38.6,45.9c0,2.7-2.1,4.9-4.9,4.9c-2.6,0-4.8-2.1-4.8-4.8c0-1.4,0.6-2.6,1.5-3.5
	c-0.7-1.1-1.1-2.5-1.1-3.8c0-4.1,3.3-7.5,7.5-7.5c4.1,0,7.4,3.4,7.4,7.5C44.3,42.2,42,45.1,38.6,45.9L38.6,45.9z M47.3,34
	c7.4,0,13.5,6,13.5,13.5c0,7.4-6.1,13.5-13.5,13.5c-6.4,0-11.7-4.3-13.1-10.2c2.5-0.2,4.6-2.2,4.4-4.8c0,0,0,0,0-0.1
	c3.3-0.8,5.5-3.7,5.7-7.2c0.1-1.5-0.4-2.8-1.1-4C44.5,34.2,45.9,34,47.3,34L47.3,34z M47.3,44.2c1.8,0,3.3,1.5,3.3,3.3
	c0,1.8-1.5,3.3-3.3,3.3c-1.9,0-3.3-1.5-3.3-3.3C44,45.6,45.5,44.2,47.3,44.2L47.3,44.2z M33.8,43.7c1.3,0,2.2,0.9,2.2,2.2
	c0,1.2-0.9,2.2-2.2,2.2c-1.2,0-2.2-1-2.2-2.2C31.6,44.7,32.6,43.7,33.8,43.7L33.8,43.7z M36.9,33.8c2.6,0,4.9,2.2,4.9,4.9
	c0,2.7-2.2,4.9-4.9,4.9c-2.7,0-4.9-2.1-4.9-4.9C32.1,36,34.2,33.8,36.9,33.8L36.9,33.8z"/>
</svg>
