<?xml version="1.0" encoding="utf-8"?>
<!-- Generator: Adobe Illustrator 19.0.0, SVG Export Plug-In . SVG Version: 6.00 Build 0)  -->
<svg version="1.1" id="Layer_1" xmlns="http://www.w3.org/2000/svg" xmlns:xlink="http://www.w3.org/1999/xlink" x="0px" y="0px"
	 viewBox="0 0 97 85" style="enable-background:new 0 0 97 85;" xml:space="preserve">
<style type="text/css">
	.st0{fill-rule:evenodd;clip-rule:evenodd;fill:#212121;}
</style>
<path id="XMLID_21_" class="st0" d="M13.7,8.8h16.9l-16.9,9.8V8.8z M68.6,35.2c0.4,1.1,0.7,2.2,0.7,3.5c0,4.8-3.9,8.8-8.8,8.8
	c-3.7,0-6.7-2.2-8-5.3l-0.9-0.1c-4.6-0.3-8.1-4.1-8.1-8.8c0-4.9,4-8.8,8.8-8.8c0.4,0,0.8,0,1.2,0.1l0.9,0.1c1.6-2.2,4.1-3.6,7-3.6
	c4.9,0,8.9,4,8.9,8.8c0,1.4-0.3,2.7-1,4L68.6,35.2z M58.7,8.8h38.2V78H92l-0.1-33.4h0.7c-2-6-4-11.9-6.1-17.9c-2,6-3.9,12-5.9,18
	h0.8L81.6,78H25.9c12.5-12.6,11-8.3,16.9-20.2l3.6-7.3l-7,3.6v-0.1L46,40.6c-4.8,2.4-9.5,4.7-14.3,7.1l2.4-4.9L27,46.5l-0.5,0.2
	c-9.3,4.6-4.7,2-12.8,10.1V37.6l0.1-0.1L57.8,12l0,0C58.7,11.2,59.1,9.9,58.7,8.8L58.7,8.8z M50.9,0.3l5.4,9.4
	c0.1,0.2,0.1,0.3-0.1,0.3l-0.9,0.6l-2-3.4l-0.9,0.5l2,3.4l-2.4,1.4l-1-1.7L50,11.3l1,1.7l-2.4,1.3l-2-3.4l-0.9,0.6l2,3.4l-2.4,1.4
	l-1-1.7l-0.9,0.6l1,1.7l-2.5,1.4L40,14.9l-0.9,0.6l1.9,3.4l-2.4,1.3l-1-1.7L36.7,19l1,1.7l-2.4,1.4l-2-3.4l-0.9,0.5l2,3.4l-2.4,1.4
	l-1-1.7L30,22.9l1,1.7L28.6,26l-2-3.4l-0.9,0.6l2,3.4L25.2,28l-1-1.7l-0.9,0.6l1,1.7l-2.4,1.4l-2-3.4L19,27.1l2,3.4l-2.4,1.3l-1-1.7
	l-0.9,0.5l1,1.7l-2.4,1.4l-2-3.4l-0.9,0.5l2,3.4l-1.8,1.1c-0.1,0.1-0.3,0-0.3-0.1l-5.5-9.5c0-0.1,0-0.2,0.2-0.3L50.5,0.2
	C50.6,0.1,50.8,0.2,50.9,0.3L50.9,0.3z M86.6,34.6l1.2,3.7l1.2,3.7l-2.5,0.1h-2.5l1.2-3.7L86.6,34.6z M84,42.9l5.4-0.1l0.2,38.7
	l-5.4,0.1L84,42.9z M86.6,34.6l0.2,0.7L87,36h-0.4h-0.5l0.3-0.7L86.6,34.6z M40.4,46.3L39,49.1L37.6,52l-1.4-1.4l-1.5-1.4l2.9-1.5
	L40.4,46.3z M34.2,49.5l3.2,3.1L14.9,75L11.9,72L34.2,49.5z M40.4,46.3l-0.2,0.5l-0.2,0.5L39.7,47l-0.3-0.2l0.5-0.2L40.4,46.3z
	 M40.8,56.2L39.4,59L38,61.9l-1.5-1.4l-1.4-1.4l2.8-1.5L40.8,56.2z M34.6,59.4l3.1,3.1L15.3,85l-3.1-3.1L34.6,59.4z M40.8,56.2
	l-0.3,0.5l-0.2,0.5L40.1,57l-0.2-0.2l0.5-0.2L40.8,56.2z M28.6,48.5l-1.4,2.9l-1.4,2.8l-1.5-1.4l-1.4-1.4l2.8-1.4L28.6,48.5z
	 M22.3,51.7l3.2,3.1L3.2,77.3L0,74.2L22.3,51.7z M28.6,48.5L28.4,49l-0.3,0.5l-0.2-0.2L27.5,49l0.6-0.2L28.6,48.5z M52.2,27
	c0.3,0,0.6,0,0.9,0.1c-0.3,0.9-0.5,1.8-0.5,2.8c0,0.8,0.1,1.5,0.2,2.2l0.4,1.5c-1,1.4-1.6,3.2-1.6,5.1c0,0.2,0,0.6,0,0.9
	c-3.2-0.2-5.7-3-5.7-6.3C46,29.8,48.8,27,52.2,27L52.2,27z M61.4,23.7c3.5,0,6.3,2.8,6.3,6.2c0,1.1-0.2,2-0.7,2.8
	c-1.6-1.7-4-2.9-6.6-2.9c-1.9,0-3.7,0.7-5.1,1.7c-0.2-0.6-0.3-1.1-0.3-1.7C55.1,26.5,57.9,23.7,61.4,23.7L61.4,23.7z M60.5,32.4
	c3.5,0,6.3,2.8,6.3,6.3c0,3.5-2.8,6.2-6.3,6.2c-3.5,0-6.3-2.7-6.3-6.2C54.2,35.2,57,32.4,60.5,32.4L60.5,32.4z"/>
</svg>
