<?xml version="1.0" encoding="utf-8"?>
<!-- Generator: Adobe Illustrator 19.0.0, SVG Export Plug-In . SVG Version: 6.00 Build 0)  -->
<svg version="1.1" id="Layer_1" xmlns="http://www.w3.org/2000/svg" xmlns:xlink="http://www.w3.org/1999/xlink" x="0px" y="0px"
	 viewBox="0 0 95 95" style="enable-background:new 0 0 95 95;" xml:space="preserve">
<style type="text/css">
	.st0{fill-rule:evenodd;clip-rule:evenodd;fill:#212121;}
</style>
<path id="XMLID_9_" class="st0" d="M72.2,40.3l-33,33.5l-1.4-15.9l-0.1-12.6l-0.2-10.8l-0.1-0.1l0.9-31.8L49,12.7l-2.6,0.7l2.8,3.2
	C56.5,25,64.2,32.5,72.2,40.3L72.2,40.3z M25.2,88.8l-6.9-8.9l2.9-3.3L25.2,88.8z M84.9,9.1L94,18l-12.5,3.3L84.9,9.1z M34.9,32
	L21,19L4.1,20.9L1,17.5L19.1,18L1.5,0.2h34.3L34.9,32z M35,35.6l0.1,9.7l0.1,9.5L6.3,23.3l13.8-1.5L35,35.6z M74,38.4
	c-8.5-8.3-14.7-14.3-22.9-23.5l31.7-8L74,38.4z M36.8,76.3L32.4,80l3,11.8l-5.7-8.3L30,95l-6.8-20.6l10.4-11.7L8,35.3l8,2.4
	l19.3,21.1L36.8,76.3z"/>
</svg>
